<svg width="20" height="20" viewBox="0 0 20 20" fill="none" xmlns="http://www.w3.org/2000/svg">
<g clip-path="url(#clip0_105_1172)">
<path d="M10 0C8.02219 0 6.08879 0.586489 4.4443 1.6853C2.79981 2.78412 1.51809 4.3459 0.761209 6.17316C0.00433286 8.00042 -0.193701 10.0111 0.192152 11.9509C0.578004 13.8907 1.53041 15.6725 2.92894 17.0711C4.32746 18.4696 6.10929 19.422 8.0491 19.8078C9.98891 20.1937 11.9996 19.9957 13.8268 19.2388C15.6541 18.4819 17.2159 17.2002 18.3147 15.5557C19.4135 13.9112 20 11.9778 20 10C19.9971 7.34871 18.9426 4.80684 17.0679 2.9321C15.1932 1.05736 12.6513 0.00286757 10 0V0ZM10 17.5C8.51665 17.5 7.0666 17.0601 5.83323 16.236C4.59986 15.4119 3.63857 14.2406 3.07091 12.8701C2.50325 11.4997 2.35473 9.99168 2.64411 8.53682C2.9335 7.08196 3.64781 5.74559 4.6967 4.6967C5.7456 3.6478 7.08197 2.9335 8.53683 2.64411C9.99169 2.35472 11.4997 2.50325 12.8701 3.0709C14.2406 3.63856 15.4119 4.59985 16.236 5.83322C17.0601 7.06659 17.5 8.51664 17.5 10C17.4978 11.9884 16.7069 13.8948 15.3009 15.3009C13.8948 16.7069 11.9885 17.4978 10 17.5ZM14.1667 10C14.1667 10.3315 14.035 10.6495 13.8006 10.8839C13.5661 11.1183 13.2482 11.25 12.9167 11.25H11.25V12.9167C11.25 13.2482 11.1183 13.5661 10.8839 13.8005C10.6495 14.035 10.3315 14.1667 10 14.1667C9.66848 14.1667 9.35054 14.035 9.11612 13.8005C8.8817 13.5661 8.75 13.2482 8.75 12.9167V11.25H7.08334C6.75182 11.25 6.43388 11.1183 6.19945 10.8839C5.96503 10.6495 5.83334 10.3315 5.83334 10C5.83334 9.66848 5.96503 9.35053 6.19945 9.11611C6.43388 8.88169 6.75182 8.75 7.08334 8.75H8.75V7.08333C8.75 6.75181 8.8817 6.43387 9.11612 6.19945C9.35054 5.96503 9.66848 5.83333 10 5.83333C10.3315 5.83333 10.6495 5.96503 10.8839 6.19945C11.1183 6.43387 11.25 6.75181 11.25 7.08333V8.75H12.9167C13.2482 8.75 13.5661 8.88169 13.8006 9.11611C14.035 9.35053 14.1667 9.66848 14.1667 10Z" fill="#393D3F"/>
</g>
<defs>
<clipPath id="clip0_105_1172">
<rect width="20" height="20" fill="white"/>
</clipPath>
</defs>
</svg>
