<svg width="45" height="45" viewBox="0 0 45 45" fill="none" xmlns="http://www.w3.org/2000/svg">
<circle cx="22.5" cy="22.5" r="22.5" fill="#167F56"/>
<path d="M12 22.7188C12 22.9167 12.0365 23.1042 12.1094 23.2812C12.1823 23.4479 12.2917 23.6042 12.4375 23.75L24.8281 35.8594C25.1094 36.1406 25.4479 36.2812 25.8438 36.2812C26.1146 36.2812 26.3542 36.2188 26.5625 36.0938C26.7812 35.9688 26.9531 35.7969 27.0781 35.5781C27.2135 35.3698 27.2812 35.1302 27.2812 34.8594C27.2812 34.474 27.1406 34.1354 26.8594 33.8438L15.4844 22.7188L26.8594 11.5938C27.1406 11.3021 27.2812 10.9635 27.2812 10.5781C27.2812 10.3073 27.2135 10.0677 27.0781 9.85938C26.9531 9.64062 26.7812 9.46875 26.5625 9.34375C26.3542 9.21875 26.1146 9.15625 25.8438 9.15625C25.4479 9.15625 25.1094 9.29167 24.8281 9.5625L12.4375 21.6875C12.2917 21.8333 12.1823 21.9948 12.1094 22.1719C12.0365 22.3385 12 22.5208 12 22.7188Z" fill="#FDFDFF"/>
</svg>
