<svg width="28" height="27" viewBox="0 0 28 27" fill="none" xmlns="http://www.w3.org/2000/svg">
<path d="M22.6912 2.24255L16.7625 0.265927C15.1984 -0.20698 13.5111 -0.0447488 12.0658 0.717489C10.6204 1.47973 9.53357 2.78061 9.0405 4.33843L9 4.49255H6.1875C4.54702 4.49434 2.97424 5.14681 1.81425 6.3068C0.654256 7.46679 0.00178669 9.03957 0 10.6801L0 20.805C0.00178669 22.4455 0.654256 24.0183 1.81425 25.1783C2.97424 26.3383 4.54702 26.9908 6.1875 26.9925H11.8125C12.733 26.9923 13.6418 26.7864 14.4725 26.3899C15.3032 25.9934 16.0349 25.4164 16.614 24.7009C18.0628 24.8923 19.5324 24.5604 20.7584 23.765C21.9844 22.9696 22.8864 21.7628 23.3021 20.3618L26.775 9.89255C27.2288 8.33667 27.0555 6.66497 26.2923 5.23522C25.5291 3.80548 24.2365 2.73129 22.6912 2.24255ZM14.625 20.805C14.625 21.551 14.3287 22.2663 13.8012 22.7938C13.2738 23.3212 12.5584 23.6175 11.8125 23.6175H6.1875C5.44158 23.6175 4.72621 23.3212 4.19876 22.7938C3.67132 22.2663 3.375 21.551 3.375 20.805V10.6801C3.375 9.93413 3.67132 9.21876 4.19876 8.69131C4.72621 8.16387 5.44158 7.86755 6.1875 7.86755H11.8125C12.5584 7.86755 13.2738 8.16387 13.8012 8.69131C14.3287 9.21876 14.625 9.93413 14.625 10.6801V20.805ZM23.553 8.88005L20.0812 19.3549C19.9385 19.8396 19.6675 20.2766 19.2968 20.6198C18.926 20.963 18.4694 21.1996 17.9752 21.3046C17.9876 21.1392 18 20.9738 18 20.805V10.6801C17.9983 9.18835 17.4578 7.74747 16.4779 6.62272C15.4981 5.49796 14.1449 4.76505 12.6675 4.55893C13.0022 4.08134 13.4781 3.7205 14.0282 3.52702C14.5784 3.33354 15.1754 3.31711 15.7354 3.48005L21.6619 5.45668C22.3596 5.67044 22.947 6.14706 23.2999 6.78585C23.6527 7.42464 23.7435 8.17558 23.553 8.88005ZM13.5 14.6176C13.5 16.2488 11.763 18.4324 10.4467 19.5428C10.0423 19.885 9.52974 20.0727 9 20.0727C8.47026 20.0727 7.95766 19.885 7.55325 19.5428C6.237 18.4324 4.5 16.2488 4.5 14.6176C4.5 14.0208 4.73705 13.4485 5.15901 13.0266C5.58097 12.6046 6.15326 12.3676 6.75 12.3676C7.34674 12.3676 7.91903 12.6046 8.34099 13.0266C8.76295 13.4485 9 14.0208 9 14.6176C9 14.0208 9.23705 13.4485 9.65901 13.0266C10.081 12.6046 10.6533 12.3676 11.25 12.3676C11.8467 12.3676 12.419 12.6046 12.841 13.0266C13.2629 13.4485 13.5 14.0208 13.5 14.6176Z" fill="#393D3F"/>
</svg>
