<?xml version="1.0" encoding="utf-8"?>
<!-- Generator: Adobe Illustrator 23.0.6, SVG Export Plug-In . SVG Version: 6.00 Build 0)  -->
<svg version="1.1" id="Bold" xmlns="http://www.w3.org/2000/svg" xmlns:xlink="http://www.w3.org/1999/xlink" x="0px" y="0px"
	 viewBox="0 0 20 20" style="enable-background:new 0 0 20 20;" xml:space="preserve">
<style type="text/css">
	.st0{fill:#FDFDFF;}
</style>
<path class="st0" d="M14.9,1.3c0,0.3-0.1,0.6-0.4,0.9L8.2,8.5c-0.8,0.8-0.8,2.1,0,2.9c0,0,0,0,0,0l6.4,6.4c0.5,0.5,0.5,1.3,0,1.8
	c-0.5,0.5-1.3,0.5-1.7,0l-6.4-6.4c-1.8-1.8-1.8-4.7,0-6.5l6.4-6.4c0.5-0.5,1.3-0.5,1.8,0C14.8,0.6,14.9,0.9,14.9,1.3z"/>
</svg>
