<svg width="20" height="20" viewBox="0 0 20 20" fill="none" xmlns="http://www.w3.org/2000/svg">
<g clip-path="url(#clip0_105_1187)">
<path d="M15.4167 0H4.58333C3.36823 0.00154355 2.20334 0.484925 1.34413 1.34413C0.484925 2.20334 0.00154355 3.36823 0 4.58333L0 12.0833C0.00154355 13.2984 0.484925 14.4633 1.34413 15.3225C2.20334 16.1817 3.36823 16.6651 4.58333 16.6667H5.78167L9.19833 19.5233C9.42319 19.7113 9.70694 19.8143 10 19.8143C10.2931 19.8143 10.5768 19.7113 10.8017 19.5233L14.2183 16.6667H15.4167C16.6318 16.6651 17.7967 16.1817 18.6559 15.3225C19.5151 14.4633 19.9985 13.2984 20 12.0833V4.58333C19.9985 3.36823 19.5151 2.20334 18.6559 1.34413C17.7967 0.484925 16.6318 0.00154355 15.4167 0V0ZM17.5 12.0833C17.5 12.6359 17.2805 13.1658 16.8898 13.5565C16.4991 13.9472 15.9692 14.1667 15.4167 14.1667H13.7642C13.471 14.1669 13.1873 14.2701 12.9625 14.4583L10 16.935L7.0375 14.4583C6.81275 14.2701 6.52899 14.1669 6.23583 14.1667H4.58333C4.0308 14.1667 3.5009 13.9472 3.11019 13.5565C2.71949 13.1658 2.5 12.6359 2.5 12.0833V4.58333C2.5 4.0308 2.71949 3.5009 3.11019 3.11019C3.5009 2.71949 4.0308 2.5 4.58333 2.5H15.4167C15.9692 2.5 16.4991 2.71949 16.8898 3.11019C17.2805 3.5009 17.5 4.0308 17.5 4.58333V12.0833Z" fill="#FDFDFF"/>
<path d="M6.25 7.5H8.75C9.08152 7.5 9.39946 7.3683 9.63388 7.13388C9.8683 6.89946 10 6.58152 10 6.25C10 5.91848 9.8683 5.60054 9.63388 5.36612C9.39946 5.1317 9.08152 5 8.75 5H6.25C5.91848 5 5.60054 5.1317 5.36612 5.36612C5.1317 5.60054 5 5.91848 5 6.25C5 6.58152 5.1317 6.89946 5.36612 7.13388C5.60054 7.3683 5.91848 7.5 6.25 7.5Z" fill="#FDFDFF"/>
<path d="M13.75 9.16669H6.25C5.91848 9.16669 5.60054 9.29838 5.36612 9.5328C5.1317 9.76722 5 10.0852 5 10.4167C5 10.7482 5.1317 11.0661 5.36612 11.3006C5.60054 11.535 5.91848 11.6667 6.25 11.6667H13.75C14.0815 11.6667 14.3995 11.535 14.6339 11.3006C14.8683 11.0661 15 10.7482 15 10.4167C15 10.0852 14.8683 9.76722 14.6339 9.5328C14.3995 9.29838 14.0815 9.16669 13.75 9.16669Z" fill="#FDFDFF"/>
</g>
<defs>
<clipPath id="clip0_105_1187">
<rect width="20" height="20" fill="white"/>
</clipPath>
</defs>
</svg>
