<svg width="20" height="20" viewBox="0 0 20 20" fill="none" xmlns="http://www.w3.org/2000/svg">
<path d="M13.3842 6.61591C12.8962 6.12759 12.1048 6.12735 11.6164 6.61536C11.6163 6.61556 11.6161 6.61575 11.6159 6.61591L10 8.23259L8.38423 6.61591C7.89591 6.12759 7.10419 6.12759 6.61591 6.61591C6.12763 7.10423 6.12759 7.89595 6.61591 8.38423L8.23255 10.0001L6.61587 11.6159C6.12755 12.1042 6.12755 12.896 6.61587 13.3842C7.10419 13.8726 7.89591 13.8726 8.38419 13.3842L10 11.7676L11.6159 13.3843C12.1042 13.8726 12.8959 13.8726 13.3842 13.3843C13.8725 12.896 13.8725 12.1042 13.3842 11.616L11.7675 10.0001L13.3842 8.38427C13.8725 7.89626 13.8728 7.10482 13.3848 6.6165C13.3846 6.6163 13.3844 6.6161 13.3842 6.61591Z" fill="#FDFDFF"/>
<path d="M10 0C4.47715 0 0 4.47715 0 10C0 15.5229 4.47715 20 10 20C15.5229 20 20 15.5229 20 10C19.994 4.47961 15.5204 0.00597656 10 0ZM10 17.5C5.85785 17.5 2.5 14.1421 2.5 10C2.5 5.85785 5.85785 2.5 10 2.5C14.1421 2.5 17.5 5.85785 17.5 10C17.4954 14.1402 14.1402 17.4954 10 17.5Z" fill="#FDFDFF"/>
</svg>
