<svg width="146" height="146" viewBox="0 0 146 146" fill="none" xmlns="http://www.w3.org/2000/svg">
<path d="M82.507 9.8961L122.019 32.7085C126.54 35.3183 128.062 36.2475 129.137 37.4539C130.127 38.5652 130.879 39.8675 131.346 41.2805C131.853 42.8147 131.897 44.5975 131.897 49.817V95.4418C131.897 100.661 131.853 102.444 131.346 103.978C130.879 105.391 130.127 106.694 129.137 107.805C128.062 109.011 126.54 109.941 122.019 112.55L82.507 135.363C77.9868 137.973 76.421 138.826 74.8387 139.154C73.3813 139.456 71.8776 139.456 70.4202 139.154C68.8379 138.826 67.2721 137.973 62.7518 135.363L23.2396 112.55C18.7193 109.941 17.1971 109.011 16.1222 107.805C15.1321 106.694 14.3803 105.391 13.913 103.978C13.4056 102.444 13.362 100.661 13.362 95.4419V49.817C13.362 44.5975 13.4056 42.8147 13.913 41.2805C14.3803 39.8675 15.1321 38.5652 16.1222 37.4539C17.1971 36.2475 18.7193 35.3183 23.2396 32.7085L62.7518 9.8961C67.2721 7.28631 68.8379 6.43267 70.4202 6.10499C71.8776 5.80318 73.3813 5.80318 74.8387 6.10499C76.421 6.43267 77.9868 7.28631 82.507 9.8961Z" fill="url(#paint0_linear_460_327)" stroke="black" stroke-width="7.26294"/>
<path d="M82.507 9.8961L122.019 32.7085C126.54 35.3183 128.062 36.2475 129.137 37.4539C130.127 38.5652 130.879 39.8675 131.346 41.2805C131.853 42.8147 131.897 44.5975 131.897 49.817V95.4418C131.897 100.661 131.853 102.444 131.346 103.978C130.879 105.391 130.127 106.694 129.137 107.805C128.062 109.011 126.54 109.941 122.019 112.55L82.507 135.363C77.9868 137.973 76.421 138.826 74.8387 139.154C73.3813 139.456 71.8776 139.456 70.4202 139.154C68.8379 138.826 67.2721 137.973 62.7518 135.363L23.2396 112.55C18.7193 109.941 17.1971 109.011 16.1222 107.805C15.1321 106.694 14.3803 105.391 13.913 103.978C13.4056 102.444 13.362 100.661 13.362 95.4419V49.817C13.362 44.5975 13.4056 42.8147 13.913 41.2805C14.3803 39.8675 15.1321 38.5652 16.1222 37.4539C17.1971 36.2475 18.7193 35.3183 23.2396 32.7085L62.7518 9.8961C67.2721 7.28631 68.8379 6.43267 70.4202 6.10499C71.8776 5.80318 73.3813 5.80318 74.8387 6.10499C76.421 6.43267 77.9868 7.28631 82.507 9.8961Z" stroke="#167F56" stroke-width="7.26294"/>
<g clip-path="url(#clip0_460_327)">
<mask id="path-3-inside-1_460_327" fill="white">
<path d="M52.7676 57.0002L60.634 49.1347C61.1223 48.6464 61.1223 47.8547 60.634 47.3665C60.1457 46.8782 59.354 46.8782 58.8658 47.3665L51.0002 55.2328L43.1347 47.3665C42.6464 46.8782 41.8547 46.8782 41.3665 47.3665C40.8782 47.8548 40.8782 48.6465 41.3665 49.1347L49.2328 57.0002L41.3665 64.8658C40.8782 65.3541 40.8782 66.1457 41.3665 66.634C41.8548 67.1223 42.6465 67.1223 43.1347 66.634L51.0002 58.7676L58.8657 66.634C59.354 67.1223 60.1457 67.1223 60.634 66.634C61.1223 66.1457 61.1223 65.354 60.634 64.8658L52.7676 57.0002Z"/>
</mask>
<path d="M52.7676 57.0002L60.634 49.1347C61.1223 48.6464 61.1223 47.8547 60.634 47.3665C60.1457 46.8782 59.354 46.8782 58.8658 47.3665L51.0002 55.2328L43.1347 47.3665C42.6464 46.8782 41.8547 46.8782 41.3665 47.3665C40.8782 47.8548 40.8782 48.6465 41.3665 49.1347L49.2328 57.0002L41.3665 64.8658C40.8782 65.3541 40.8782 66.1457 41.3665 66.634C41.8548 67.1223 42.6465 67.1223 43.1347 66.634L51.0002 58.7676L58.8657 66.634C59.354 67.1223 60.1457 67.1223 60.634 66.634C61.1223 66.1457 61.1223 65.354 60.634 64.8658L52.7676 57.0002Z" fill="#167F56"/>
<path d="M52.7676 57.0002L-17.9392 -13.7143L-88.6611 56.9999L-17.9395 127.714L52.7676 57.0002ZM60.634 49.1347L131.341 119.849L131.345 119.845L60.634 49.1347ZM60.634 47.3665L-10.0767 118.077L-10.0738 118.08L60.634 47.3665ZM58.8658 47.3665L-11.8478 -23.3414L-11.8484 -23.3407L58.8658 47.3665ZM51.0002 55.2328L-19.7141 125.94L51 196.661L121.714 125.94L51.0002 55.2328ZM43.1347 47.3665L113.849 -23.3405L113.845 -23.3442L43.1347 47.3665ZM41.3665 49.1347L-29.3414 119.848L-29.3405 119.849L41.3665 49.1347ZM49.2328 57.0002L119.94 127.714L190.661 57L119.94 -13.7141L49.2328 57.0002ZM41.3665 64.8658L-29.3407 -5.84844L-29.3442 -5.84493L41.3665 64.8658ZM43.1347 66.634L113.848 137.342L113.849 137.341L43.1347 66.634ZM51.0002 58.7676L121.715 -11.9392L51.0002 -82.6614L-19.7143 -11.9392L51.0002 58.7676ZM58.8657 66.634L-11.8488 137.341L-11.845 137.345L58.8657 66.634ZM60.634 66.634L-10.0767 -4.07668L-10.0795 -4.07385L60.634 66.634ZM60.634 64.8658L131.342 -5.84776L131.341 -5.84845L60.634 64.8658ZM123.474 127.715L131.341 119.849L-10.0728 -21.5798L-17.9392 -13.7143L123.474 127.715ZM131.345 119.845C170.884 80.3062 170.888 16.1959 131.342 -23.347L-10.0738 118.08C-48.6433 79.5136 -48.6392 16.9866 -10.0767 -21.576L131.345 119.845ZM131.345 -23.3442C91.8055 -62.8834 27.6951 -62.8874 -11.8478 -23.3414L129.579 118.074C91.0129 156.644 28.4859 156.64 -10.0767 118.077L131.345 -23.3442ZM-11.8484 -23.3407L-19.714 -15.4744L121.714 125.94L129.58 118.074L-11.8484 -23.3407ZM121.715 -15.4742L113.849 -23.3405L-27.5796 118.073L-19.7141 125.94L121.715 -15.4742ZM113.845 -23.3442C74.3062 -62.8834 10.1959 -62.8874 -29.347 -23.3414L112.08 118.074C73.5136 156.644 10.9866 156.64 -27.576 118.077L113.845 -23.3442ZM-29.347 -23.3414C-68.8788 16.1935 -68.891 80.3017 -29.3414 119.848L112.074 -21.5788C150.647 16.9912 150.635 79.516 112.08 118.074L-29.347 -23.3414ZM-29.3405 119.849L-21.4742 127.715L119.94 -13.7141L112.073 -21.5796L-29.3405 119.849ZM-21.4744 -13.714L-29.3407 -5.84844L112.074 135.58L119.94 127.714L-21.4744 -13.714ZM-29.3442 -5.84493C-68.8834 33.6942 -68.8874 97.8046 -29.3414 137.348L112.074 -4.07951C150.644 34.4869 150.64 97.0139 112.077 135.576L-29.3442 -5.84493ZM-29.3414 137.348C10.1935 176.879 74.3017 176.892 113.848 137.342L-27.5788 -4.07385C10.9912 -42.6469 73.516 -42.6347 112.074 -4.07951L-29.3414 137.348ZM113.849 137.341L121.715 129.474L-19.7143 -11.9392L-27.5798 -4.07282L113.849 137.341ZM-19.7143 129.474L-11.8488 137.341L129.58 -4.07282L121.715 -11.9392L-19.7143 129.474ZM-11.845 137.345C27.6942 176.884 91.8046 176.888 131.347 137.342L-10.0795 -4.07385C28.4868 -42.6433 91.0138 -42.6392 129.576 -4.07668L-11.845 137.345ZM131.345 137.345C170.884 97.8055 170.888 33.6951 131.342 -5.84776L-10.0739 135.579C-48.6433 97.0129 -48.6393 34.4859 -10.0767 -4.07668L131.345 137.345ZM131.341 -5.84845L123.475 -13.714L-17.9395 127.714L-10.0732 135.58L131.341 -5.84845Z" fill="#167F56" mask="url(#path-3-inside-1_460_327)"/>
<rect x="41" y="64.0362" width="24.2097" height="3" transform="rotate(-43.3235 41 64.0362)" fill="#167F56"/>
</g>
<path d="M45 96.5L47.31 98.502C49.8739 100.724 53.8593 99.8017 55.1863 96.6793L56.571 93.4213C58.27 89.4234 63.908 89.3448 65.7179 93.2937L67.1181 96.3485C68.9528 100.351 74.6917 100.2 76.3124 96.1055L77.7474 92.4802C79.277 88.6161 84.5792 88.1962 86.6979 91.7715L89.5 96.5V96.5C90.8897 99.511 94.9473 100.037 97.0594 97.4808L102 91.5" stroke="#167F56" stroke-width="4"/>
<path d="M107.998 63.3987L101.399 69.9983L94.799 63.3987L88.1993 69.9983L81.5997 63.3987L88.1993 56.799L81.5997 50.1993L88.1993 43.5997L94.799 50.1993L101.399 43.5997L107.998 50.1993L101.399 56.799L107.998 63.3987ZM101.399 65.0486L103.049 63.3987L96.4489 56.799L103.049 50.1993L101.399 48.5494L94.799 55.1491L88.1993 48.5494L86.5494 50.1993L93.1491 56.799L86.5494 63.3987L88.1993 65.0486L94.799 58.4489L101.399 65.0486Z" fill="#167F56"/>
<defs>
<linearGradient id="paint0_linear_460_327" x1="145.259" y1="116.325" x2="11.5825" y2="-9.22413" gradientUnits="userSpaceOnUse">
<stop stop-color="#B8E0D0"/>
<stop offset="1" stop-color="#DBF0E8"/>
</linearGradient>
<clipPath id="clip0_460_327">
<rect width="20" height="20" fill="white" transform="translate(41 47)"/>
</clipPath>
</defs>
</svg>
