<svg width="20" height="20" viewBox="0 0 20 20" fill="none" xmlns="http://www.w3.org/2000/svg">
<g clip-path="url(#clip0_105_2151)">
<path d="M1.66667 4.58337C1.22464 4.58337 0.800715 4.75896 0.488155 5.07152C0.175595 5.38408 0 5.80801 0 6.25003L0 13.75C0 14.1921 0.175595 14.616 0.488155 14.9285C0.800715 15.2411 1.22464 15.4167 1.66667 15.4167H4.345L10.8333 19.6959V0.304199L4.345 4.58337H1.66667ZM8.33333 4.9467V15.0534L5.095 12.9167H2.5V7.08337H5.095L8.33333 4.9467Z" fill="#393D3F"/>
<path d="M12.5 7.35083V13.4875C13.3138 13.4875 14.0942 13.1642 14.6696 12.5888C15.2451 12.0134 15.5683 11.2329 15.5683 10.4192C15.5683 9.60539 15.2451 8.82495 14.6696 8.24952C14.0942 7.6741 13.3138 7.35083 12.5 7.35083Z" fill="#393D3F"/>
<path d="M12.3859 2.80584V5.30584C13.0629 5.29719 13.7349 5.42308 14.3629 5.67619C14.9909 5.92931 15.5624 6.3046 16.0443 6.78032C16.5261 7.25603 16.9086 7.82269 17.1697 8.44741C17.4309 9.07214 17.5653 9.74249 17.5653 10.4196C17.5653 11.0967 17.4309 11.767 17.1697 12.3918C16.9086 13.0165 16.5261 13.5831 16.0443 14.0589C15.5624 14.5346 14.9909 14.9099 14.3629 15.163C13.7349 15.4161 13.0629 15.542 12.3859 15.5333V18.0333C13.3924 18.0439 14.3911 17.8547 15.3241 17.4768C16.257 17.0989 17.1058 16.5398 17.8213 15.8317C18.5368 15.1237 19.1048 14.2808 19.4924 13.3518C19.8801 12.4228 20.0797 11.4262 20.0797 10.4196C20.0797 9.41298 19.8801 8.41636 19.4924 7.48738C19.1048 6.55841 18.5368 5.71552 17.8213 5.00747C17.1058 4.29942 16.257 3.74027 15.3241 3.36237C14.3911 2.98446 13.3924 2.79531 12.3859 2.80584Z" fill="#393D3F"/>
</g>
<defs>
<clipPath id="clip0_105_2151">
<rect width="20" height="20" fill="white"/>
</clipPath>
</defs>
</svg>
