<svg width="28" height="27" viewBox="0 0 28 27" fill="none" xmlns="http://www.w3.org/2000/svg">
<path d="M26.9802 19.8439C26.8492 18.6049 26.3663 17.4293 25.5886 16.456C24.8109 15.4827 23.7708 14.7523 22.5913 14.351L25.8211 2.96584C25.9737 2.31773 25.8658 1.63562 25.5206 1.06624C25.3508 0.802688 25.1293 0.576273 24.8695 0.400655C24.6098 0.225038 24.3172 0.103856 24.0093 0.0444209C23.401 -0.0698499 22.7719 0.0416315 22.2399 0.357974C21.7079 0.674315 21.3095 1.1738 21.1194 1.76283C21.1059 1.79997 18.5761 10.9907 18.5761 10.9907C18.3582 11.7173 17.9111 12.3539 17.3016 12.8054C16.6921 13.2569 15.9529 13.4991 15.1944 13.4958H11.4548C10.7065 13.3045 8.96219 12.7215 8.55594 11.3846C8.55594 11.3846 5.90686 1.8011 5.89336 1.76509C5.70473 1.17494 5.30674 0.674191 4.7744 0.357234C4.24206 0.0402774 3.61216 -0.0709857 3.00345 0.0444209C2.69554 0.103732 2.40286 0.224863 2.14309 0.400492C1.88332 0.576121 1.66186 0.802601 1.4921 1.06624C1.31761 1.35763 1.20287 1.68083 1.15457 2.01701C1.10627 2.3532 1.12537 2.69563 1.21076 3.02436L4.28748 13.9617C2.82268 14.536 1.60442 15.6038 0.843109 16.9807C0.0817949 18.3576 -0.174776 19.9571 0.117705 21.5031C0.410187 23.049 1.23336 24.4443 2.44505 25.4479C3.65675 26.4515 5.18089 27.0005 6.75425 27H10.4161C11.4375 27.0008 12.4544 26.8653 13.44 26.5971C14.4171 26.8649 15.4258 27.0004 16.439 27H20.4903C21.4001 26.9994 22.2997 26.8085 23.1315 26.4398C23.9632 26.071 24.7086 25.5324 25.3199 24.8586C25.9312 24.1847 26.3949 23.3905 26.6812 22.5269C26.9676 21.6634 27.0702 20.7495 26.9825 19.8439H26.9802ZM6.75425 23.6239C5.85887 23.6239 5.00015 23.2682 4.36702 22.6351C3.73388 22.002 3.37819 21.1433 3.37819 20.2479C3.37819 19.3525 3.73388 18.4938 4.36702 17.8606C5.00015 17.2275 5.85887 16.8718 6.75425 16.8718H15.1944C16.394 16.8747 17.5737 16.5644 18.6166 15.9715L18.0539 17.9612C17.563 19.6032 16.5537 21.0422 15.177 22.063C13.8002 23.0837 12.13 23.6313 10.4161 23.6239H6.75425ZM22.8175 22.592C22.522 22.9173 22.1616 23.1771 21.7597 23.3548C21.3577 23.5325 20.923 23.6242 20.4836 23.6239H18.5097C19.8041 22.3016 20.7586 20.6852 21.2916 18.9132L21.6595 17.6168C22.1835 17.8284 22.6414 18.1762 22.9858 18.6241C23.3303 19.0721 23.5488 19.6039 23.6188 20.1646C23.6645 20.6029 23.6167 21.0458 23.4786 21.4643C23.3405 21.8827 23.1152 22.2671 22.8175 22.592Z" fill="#393D3F"/>
</svg>
