<svg width="20" height="20" viewBox="0 0 20 19" fill="none" xmlns="http://www.w3.org/2000/svg">
<path d="M14.3752 0.54248C13.5204 0.550749 12.6795 0.759097 11.9198 1.15083C11.16 1.54256 10.5026 2.10679 10.0002 2.79831C9.49773 2.10679 8.8403 1.54256 8.08057 1.15083C7.32083 0.759097 6.47991 0.550749 5.62516 0.54248C4.07664 0.604319 2.6156 1.2768 1.56151 2.41287C0.507421 3.54894 -0.0539449 5.05616 0.000159678 6.60498C0.000159678 10.3983 3.89516 14.4591 7.16683 17.1983C7.96128 17.8663 8.96595 18.2326 10.0039 18.2326C11.0419 18.2326 12.0466 17.8663 12.841 17.1983C16.1093 14.4591 20.0077 10.3983 20.0077 6.60498C20.0617 5.05491 19.4994 3.54659 18.4437 2.41031C17.388 1.27402 15.925 0.602387 14.3752 0.54248ZM11.231 15.2825C10.8864 15.5726 10.4503 15.7318 9.99975 15.7318C9.54921 15.7318 9.11315 15.5726 8.7685 15.2825C4.78516 11.9425 2.50016 8.77997 2.50016 6.60498C2.44703 5.71932 2.7454 4.84846 3.33048 4.18146C3.91557 3.51447 4.74014 3.10519 5.62516 3.04248C6.51019 3.10519 7.33476 3.51447 7.91985 4.18146C8.50493 4.84846 8.8033 5.71932 8.75017 6.60498C8.75017 6.9365 8.88186 7.25444 9.11628 7.48886C9.35071 7.72328 9.66865 7.85498 10.0002 7.85498C10.3317 7.85498 10.6496 7.72328 10.8841 7.48886C11.1185 7.25444 11.2502 6.9365 11.2502 6.60498C11.197 5.71932 11.4954 4.84846 12.0805 4.18146C12.6656 3.51447 13.4901 3.10519 14.3752 3.04248C15.2602 3.10519 16.0848 3.51447 16.6699 4.18146C17.2549 4.84846 17.5533 5.71932 17.5002 6.60498C17.5002 8.77997 15.2152 11.9425 11.231 15.2825Z" fill="#167F56"/>
<rect x="2" y="3" width="16" height="8" fill="#167F56"/>
<rect x="4" y="8" width="12" height="6" fill="#167F56"/>
<rect x="7" y="12" width="6" height="4" fill="#167F56"/>
</svg>
