<svg width="20" height="20" viewBox="0 0 20 20" fill="none" xmlns="http://www.w3.org/2000/svg">
<g clip-path="url(#clip0_105_1180)">
<path d="M14.3752 1.54248C13.5204 1.55075 12.6795 1.7591 11.9198 2.15083C11.16 2.54256 10.5026 3.10679 10.0002 3.79831C9.49773 3.10679 8.8403 2.54256 8.08057 2.15083C7.32083 1.7591 6.47991 1.55075 5.62516 1.54248C4.07664 1.60432 2.6156 2.2768 1.56151 3.41287C0.507421 4.54894 -0.0539449 6.05616 0.000159678 7.60498C0.000159678 11.3983 3.89516 15.4591 7.16683 18.1983C7.96128 18.8663 8.96595 19.2326 10.0039 19.2326C11.0419 19.2326 12.0466 18.8663 12.841 18.1983C16.1093 15.4591 20.0077 11.3983 20.0077 7.60498C20.0617 6.05491 19.4994 4.54659 18.4437 3.41031C17.388 2.27402 15.925 1.60239 14.3752 1.54248ZM11.231 16.2825C10.8864 16.5726 10.4503 16.7318 9.99975 16.7318C9.54921 16.7318 9.11315 16.5726 8.7685 16.2825C4.78516 12.9425 2.50016 9.77997 2.50016 7.60498C2.44703 6.71932 2.7454 5.84846 3.33048 5.18146C3.91557 4.51447 4.74014 4.10519 5.62516 4.04248C6.51019 4.10519 7.33476 4.51447 7.91985 5.18146C8.50493 5.84846 8.8033 6.71932 8.75017 7.60498C8.75017 7.9365 8.88186 8.25444 9.11628 8.48886C9.35071 8.72328 9.66865 8.85498 10.0002 8.85498C10.3317 8.85498 10.6496 8.72328 10.8841 8.48886C11.1185 8.25444 11.2502 7.9365 11.2502 7.60498C11.197 6.71932 11.4954 5.84846 12.0805 5.18146C12.6656 4.51447 13.4901 4.10519 14.3752 4.04248C15.2602 4.10519 16.0848 4.51447 16.6699 5.18146C17.2549 5.84846 17.5533 6.71932 17.5002 7.60498C17.5002 9.77997 15.2152 12.9425 11.231 16.2825Z" fill="#FDFDFF"/>
</g>
<defs>
<clipPath id="clip0_105_1180">
<rect width="20" height="20" fill="white"/>
</clipPath>
</defs>
</svg>
