<svg width="20" height="26" viewBox="0 0 20 26" fill="none" xmlns="http://www.w3.org/2000/svg">
<path d="M8.42241 2.63127C8.42241 2.11086 8.57673 1.60213 8.86586 1.16942C9.15499 0.736706 9.56594 0.399449 10.0467 0.200295C10.5275 0.00114009 11.0566 -0.0509679 11.567 0.0505603C12.0774 0.152088 12.5463 0.402693 12.9143 0.770683C13.2823 1.13867 13.5329 1.60752 13.6344 2.11794C13.7359 2.62835 13.6838 3.15741 13.4847 3.63822C13.2855 4.11902 12.9482 4.52997 12.5155 4.81909C12.0828 5.10822 11.5741 5.26254 11.0537 5.26254C10.3558 5.26254 9.68655 4.98532 9.1931 4.49186C8.69964 3.9984 8.42241 3.32913 8.42241 2.63127ZM20 8.42007V25.2602H16.8425V13.6826H12.163L10.9537 11.2618L9.92961 16.5612L12.6324 18.7083V25.2602H9.47492V20.2345L6.44159 17.8295C6.03521 17.5082 5.70129 17.1047 5.46171 16.6454C5.04686 16.7755 4.61452 16.8412 4.17976 16.8401C3.62581 16.8583 3.07403 16.7625 2.55862 16.5587C2.04322 16.3549 1.57517 16.0474 1.18351 15.6552C0.791842 15.263 0.484906 14.7946 0.281727 14.279C0.0785486 13.7633 -0.0165416 13.2114 0.00235222 12.6575C0.00235222 9.21892 3.58088 6.31505 7.80459 6.31505H9.73173C10.4163 6.31281 11.0878 6.5023 11.6702 6.86206C12.2526 7.22181 12.7227 7.73746 13.0271 8.3506L14.1133 10.5251H16.8425V8.42007H20ZM4.17976 13.6826C4.44957 13.6498 4.70676 13.5494 4.92751 13.3908C5.14827 13.2322 5.32549 13.0206 5.44276 12.7753L6.13742 9.71044C4.4492 10.2009 3.15988 11.386 3.15988 12.6575C3.14019 12.7962 3.15296 12.9376 3.19717 13.0706C3.24138 13.2036 3.31583 13.3245 3.41467 13.4239C3.51351 13.5232 3.63404 13.5983 3.76679 13.6432C3.89955 13.6881 4.04091 13.7016 4.17976 13.6826ZM4.50393 18.8946L3.21355 25.2602H6.43739L7.26466 21.1691L5.13438 19.4788C4.91016 19.2998 4.69944 19.1046 4.50393 18.8946Z" fill="#393D3F"/>
</svg>
