<svg width="146" height="155" viewBox="0 0 146 155" fill="none" xmlns="http://www.w3.org/2000/svg">
<path d="M62.7518 9.8961C67.2721 7.28631 68.8379 6.43267 70.4202 6.10499C71.8776 5.80318 73.3813 5.80318 74.8387 6.10499C76.421 6.43267 77.9868 7.28631 82.507 9.8961L122.019 32.7085C126.54 35.3183 128.062 36.2475 129.137 37.454C130.127 38.5652 130.879 39.8675 131.346 41.2805C131.853 42.8146 131.897 44.5975 131.897 49.817V95.4418C131.897 100.661 131.853 102.444 131.346 103.978C130.879 105.391 130.127 106.694 129.137 107.805C128.062 109.011 126.54 109.941 122.019 112.55L82.507 135.363C77.9867 137.973 76.421 138.826 74.8387 139.154C73.3813 139.456 71.8776 139.456 70.4202 139.154C68.8379 138.826 67.2721 137.973 62.7518 135.363L23.2396 112.55C18.7193 109.941 17.1971 109.011 16.1222 107.805C15.1321 106.694 14.3803 105.391 13.913 103.978C13.4056 102.444 13.362 100.661 13.362 95.4419V49.817C13.362 44.5975 13.4056 42.8147 13.913 41.2805C14.3803 39.8675 15.1321 38.5652 16.1222 37.454C17.1971 36.2475 18.7193 35.3183 23.2396 32.7085L62.7518 9.8961Z" fill="url(#paint0_linear_460_340)" stroke="black" stroke-width="7.26294"/>
<path d="M62.7518 9.8961C67.2721 7.28631 68.8379 6.43267 70.4202 6.10499C71.8776 5.80318 73.3813 5.80318 74.8387 6.10499C76.421 6.43267 77.9868 7.28631 82.507 9.8961L122.019 32.7085C126.54 35.3183 128.062 36.2475 129.137 37.454C130.127 38.5652 130.879 39.8675 131.346 41.2805C131.853 42.8146 131.897 44.5975 131.897 49.817V95.4418C131.897 100.661 131.853 102.444 131.346 103.978C130.879 105.391 130.127 106.694 129.137 107.805C128.062 109.011 126.54 109.941 122.019 112.55L82.507 135.363C77.9867 137.973 76.421 138.826 74.8387 139.154C73.3813 139.456 71.8776 139.456 70.4202 139.154C68.8379 138.826 67.2721 137.973 62.7518 135.363L23.2396 112.55C18.7193 109.941 17.1971 109.011 16.1222 107.805C15.1321 106.694 14.3803 105.391 13.913 103.978C13.4056 102.444 13.362 100.661 13.362 95.4419V49.817C13.362 44.5975 13.4056 42.8147 13.913 41.2805C14.3803 39.8675 15.1321 38.5652 16.1222 37.454C17.1971 36.2475 18.7193 35.3183 23.2396 32.7085L62.7518 9.8961Z" stroke="#167F56" stroke-width="7.26294"/>
<path d="M101.037 92.7981C100.827 93.3978 100.501 93.9502 100.078 94.4238C99.2251 95.378 98.0288 95.955 96.7512 96.0284C95.4737 96.1017 94.2192 95.6656 93.2628 94.8154C87.3538 89.8411 80.0122 86.8814 72.3055 86.3667C64.5986 86.8807 57.2567 89.8405 51.3481 94.8154C50.3906 95.6678 49.1336 96.1049 47.8537 96.0306C46.5738 95.9563 45.3759 95.3766 44.5235 94.419C43.671 93.4615 43.2339 92.2045 43.3082 90.9246C43.3825 89.6447 43.9622 88.4468 44.9198 87.5944C52.5945 81.0378 62.2242 77.207 72.3055 76.7C82.3867 77.207 92.0164 81.0378 99.6911 87.5944C100.165 88.0171 100.552 88.5293 100.828 89.1014C101.104 89.6736 101.264 90.2946 101.3 90.9289C101.336 91.5632 101.247 92.1984 101.037 92.7981Z" fill="#167F56"/>
<path d="M52.9721 62.2C47.6313 62.2 43.3055 62.2 43.3055 57.3667C43.3055 54.8029 44.3239 52.3442 46.1368 50.5313C47.9496 48.7185 50.4084 47.7 52.9721 47.7C55.5359 47.7 57.9946 48.7185 59.8075 50.5313C61.6203 52.3442 62.6388 54.8029 62.6388 57.3667C62.6388 62.2 58.313 62.2 52.9721 62.2Z" fill="#167F56"/>
<path d="M91.6388 62.2C86.298 62.2 81.9721 62.2 81.9721 57.3667C81.9721 54.8029 82.9906 52.3442 84.8034 50.5313C86.6163 48.7185 89.075 47.7 91.6388 47.7C94.2025 47.7 96.6613 48.7185 98.4741 50.5313C100.287 52.3442 101.305 54.8029 101.305 57.3667C101.305 62.2 96.9796 62.2 91.6388 62.2Z" fill="#167F56"/>
<defs>
<linearGradient id="paint0_linear_460_340" x1="145.259" y1="116.325" x2="11.5825" y2="-9.22413" gradientUnits="userSpaceOnUse">
<stop stop-color="#B8E0D0"/>
<stop offset="1" stop-color="#DBF0E8"/>
</linearGradient>
</defs>
</svg>
