<svg width="20" height="20" viewBox="0 0 20 20" fill="none" xmlns="http://www.w3.org/2000/svg">
<g clip-path="url(#clip0_106_522)">
<path d="M19.1663 0.835025C18.4771 0.136298 17.4723 -0.150184 16.5183 0.080134L3.78017 2.75725C1.36114 3.1152 -0.30967 5.3664 0.0482864 7.78539C0.187446 8.72584 0.625625 9.59653 1.29799 10.2687L2.66361 11.6351C2.72755 11.6982 2.76328 11.7845 2.76278 11.8743V14.3939C2.76461 15.9614 4.03486 17.2317 5.60236 17.2335H8.122C8.21195 17.2335 8.29826 17.2692 8.36197 17.3327L9.72759 18.6983C10.5533 19.5295 11.6763 19.9973 12.848 19.9981C13.3316 19.9977 13.812 19.9186 14.2703 19.764C15.8517 19.2388 17.0009 17.8654 17.239 16.2162L19.9161 3.518C20.1566 2.554 19.8717 1.53461 19.1663 0.835025ZM2.60116 6.52252C2.82761 5.8229 3.43869 5.3177 4.16843 5.22689C4.19788 5.22298 4.22702 5.21798 4.25592 5.21189L15.356 2.87891L5.26245 12.9666V11.8742C5.26429 11.1207 4.96418 10.3978 4.42925 9.86704L3.06527 8.50142C2.53992 7.98759 2.35901 7.21637 2.60116 6.52252ZM14.7844 15.7446C14.7777 15.7737 14.7736 15.8029 14.7694 15.832C14.6247 16.8875 13.6518 17.6258 12.5964 17.4811C12.1794 17.4239 11.7926 17.2319 11.4949 16.9344L10.1301 15.5696C9.59905 15.0345 8.87588 14.7344 8.12204 14.7364H7.0297L17.1207 4.64283L14.7844 15.7446Z" fill="#FDFDFF"/>
</g>
<defs>
<clipPath id="clip0_106_522">
<rect width="20" height="20" fill="white"/>
</clipPath>
</defs>
</svg>
