<svg width="23" height="28" viewBox="0 0 23 28" fill="none" xmlns="http://www.w3.org/2000/svg">
<path d="M9.33593 2.91667C9.33593 2.33981 9.50699 1.7759 9.82748 1.29625C10.148 0.816611 10.6035 0.442775 11.1364 0.222019C11.6694 0.00126375 12.2558 -0.056496 12.8216 0.0560442C13.3874 0.168584 13.9071 0.44637 14.315 0.854273C14.7229 1.26218 15.0007 1.78188 15.1132 2.34765C15.2258 2.91343 15.168 3.49988 14.9472 4.03283C14.7265 4.56578 14.3527 5.0213 13.873 5.34179C13.3934 5.66227 12.8295 5.83333 12.2526 5.83333C11.4791 5.83333 10.7372 5.52604 10.1902 4.97906C9.64322 4.43208 9.33593 3.69022 9.33593 2.91667ZM22.1693 9.33333V28H18.6693V15.1667H13.4823L12.1418 12.4833L11.0066 18.3575L14.0026 20.7375V28H10.5026V22.4292L7.14027 19.7633C6.68981 19.4072 6.31967 18.96 6.0541 18.4508C5.59426 18.595 5.11502 18.6678 4.6331 18.6667C4.01907 18.6868 3.40745 18.5807 2.83614 18.3547C2.26483 18.1288 1.74602 17.7879 1.31187 17.3532C0.877728 16.9185 0.5375 16.3993 0.312284 15.8277C0.0870682 15.2561 -0.0183357 14.6443 0.00260735 14.0303C0.00260735 10.2188 3.96927 7 8.6511 7H10.7873C11.5461 6.99752 12.2904 7.20756 12.936 7.60633C13.5816 8.00511 14.1026 8.57669 14.4401 9.25633L15.6441 11.6667H18.6693V9.33333H22.1693ZM4.6331 15.1667C4.93219 15.1302 5.21726 15.019 5.46197 14.8432C5.70667 14.6674 5.9031 14.4328 6.0331 14.161L6.8031 10.7637C4.93177 11.3073 3.50261 12.621 3.50261 14.0303C3.48079 14.1841 3.49494 14.3409 3.54395 14.4883C3.59295 14.6357 3.67548 14.7697 3.78503 14.8799C3.89459 14.99 4.0282 15.0732 4.17535 15.123C4.3225 15.1727 4.47919 15.1877 4.6331 15.1667ZM4.99244 20.944L3.56211 28H7.1356L8.0526 23.4652L5.69127 21.5915C5.44273 21.3931 5.20915 21.1767 4.99244 20.944Z" fill="#393D3F"/>
</svg>
