<svg width="20" height="20" viewBox="0 0 20 20" fill="none" xmlns="http://www.w3.org/2000/svg">
<path d="M16.25 0C15.2558 0.00110286 14.3026 0.396545 13.5996 1.09957C12.8965 1.80259 12.5011 2.75578 12.5 3.75C12.5 4.08152 12.6317 4.39946 12.8661 4.63388C13.1005 4.8683 13.4185 5 13.75 5C14.0815 5 14.3995 4.8683 14.6339 4.63388C14.8683 4.39946 15 4.08152 15 3.75C15 3.41848 15.1317 3.10054 15.3661 2.86612C15.6005 2.6317 15.9185 2.5 16.25 2.5C16.5815 2.5 16.8995 2.6317 17.1339 2.86612C17.3683 3.10054 17.5 3.41848 17.5 3.75V11.3392C16.5501 10.85 15.4586 10.7099 14.416 10.9436C13.3734 11.1772 12.4461 11.7697 11.7958 12.6175C11.2617 12.2689 10.6378 12.0833 10 12.0833C9.36223 12.0833 8.73825 12.2689 8.20417 12.6175C7.55394 11.7697 6.62656 11.1772 5.58397 10.9436C4.54139 10.7099 3.44986 10.85 2.5 11.3392V3.75C2.5 3.41848 2.6317 3.10054 2.86612 2.86612C3.10054 2.6317 3.41848 2.5 3.75 2.5C4.08152 2.5 4.39946 2.6317 4.63388 2.86612C4.8683 3.10054 5 3.41848 5 3.75C5 4.08152 5.1317 4.39946 5.36612 4.63388C5.60054 4.8683 5.91848 5 6.25 5C6.58152 5 6.89946 4.8683 7.13388 4.63388C7.3683 4.39946 7.5 4.08152 7.5 3.75C7.5 2.75544 7.10491 1.80161 6.40165 1.09835C5.69839 0.395088 4.74456 0 3.75 0C2.75544 0 1.80161 0.395088 1.09835 1.09835C0.395088 1.80161 0 2.75544 0 3.75L0 15.4167C0 16.6322 0.482886 17.798 1.34243 18.6576C2.20197 19.5171 3.36776 20 4.58333 20C5.79891 20 6.9647 19.5171 7.82424 18.6576C8.68378 17.798 9.16667 16.6322 9.16667 15.4167C9.16667 15.1957 9.25446 14.9837 9.41074 14.8274C9.56702 14.6711 9.77899 14.5833 10 14.5833C10.221 14.5833 10.433 14.6711 10.5893 14.8274C10.7455 14.9837 10.8333 15.1957 10.8333 15.4167C10.8333 16.6322 11.3162 17.798 12.1758 18.6576C13.0353 19.5171 14.2011 20 15.4167 20C16.6322 20 17.798 19.5171 18.6576 18.6576C19.5171 17.798 20 16.6322 20 15.4167V3.75C19.9989 2.75578 19.6035 1.80259 18.9004 1.09957C18.1974 0.396545 17.2442 0.00110286 16.25 0V0ZM4.58333 17.5C4.17129 17.5 3.7685 17.3778 3.4259 17.1489C3.08329 16.92 2.81627 16.5946 2.65858 16.2139C2.5009 15.8332 2.45964 15.4144 2.54003 15.0102C2.62042 14.6061 2.81883 14.2349 3.11019 13.9435C3.40155 13.6522 3.77277 13.4537 4.1769 13.3734C4.58102 13.293 4.99991 13.3342 5.38059 13.4919C5.76127 13.6496 6.08664 13.9166 6.31556 14.2592C6.54448 14.6018 6.66667 15.0046 6.66667 15.4167C6.66667 15.9692 6.44717 16.4991 6.05647 16.8898C5.66577 17.2805 5.13587 17.5 4.58333 17.5ZM15.4167 17.5C15.0046 17.5 14.6018 17.3778 14.2592 17.1489C13.9166 16.92 13.6496 16.5946 13.4919 16.2139C13.3342 15.8332 13.293 15.4144 13.3734 15.0102C13.4537 14.6061 13.6522 14.2349 13.9435 13.9435C14.2349 13.6522 14.6061 13.4537 15.0102 13.3734C15.4144 13.293 15.8332 13.3342 16.2139 13.4919C16.5946 13.6496 16.92 13.9166 17.1489 14.2592C17.3778 14.6018 17.5 15.0046 17.5 15.4167C17.5 15.9692 17.2805 16.4991 16.8898 16.8898C16.4991 17.2805 15.9692 17.5 15.4167 17.5Z" fill="#393D3F"/>
</svg>
