<svg width="24" height="24" viewBox="0 0 24 24" fill="none" xmlns="http://www.w3.org/2000/svg">
<path d="M12.2523 13.4523L12.25 13.4761V13.5C12.25 13.5663 12.2236 13.6299 12.1768 13.6768C12.1299 13.7237 12.0663 13.75 12 13.75C11.9337 13.75 11.8701 13.7237 11.8232 13.6768C11.7763 13.6299 11.75 13.5663 11.75 13.5V13.4729L11.747 13.4459L11.0699 7.22791C11.073 7.16782 11.0892 7.13177 11.1143 7.10243C11.1233 7.09813 11.1436 7.08922 11.1798 7.07838C11.2517 7.05681 11.3474 7.03903 11.4582 7.02609C11.679 7.00032 11.9012 7 12 7C12.0992 7 12.3 7.00037 12.4973 7.02395C12.5963 7.03578 12.6796 7.05183 12.741 7.07067C12.7653 7.07815 12.7806 7.08438 12.789 7.08816C12.8235 7.12875 12.8442 7.17933 12.8479 7.23251L12.2523 13.4523ZM12.3535 16.8516C12.2598 16.9453 12.1326 16.998 12 16.998C11.8674 16.998 11.7402 16.9453 11.6464 16.8516C11.5527 16.7578 11.5 16.6306 11.5 16.498C11.5 16.3654 11.5527 16.2382 11.6464 16.1444C11.7402 16.0507 11.8674 15.998 12 15.998C12.1326 15.998 12.2598 16.0507 12.3535 16.1444C12.4473 16.2382 12.5 16.3654 12.5 16.498C12.5 16.6306 12.4473 16.7578 12.3535 16.8516Z" fill="#D69129" stroke="#D69129"/>
<circle cx="12.0003" cy="16.6235" r="1.24806" fill="#D69129"/>
<path d="M12 2C17.523 2 22 6.477 22 12C22 17.523 17.523 22 12 22C10.404 22.0022 8.83083 21.6208 7.41301 20.888L3.58701 21.955C3.37355 22.0146 3.14809 22.0163 2.93373 21.9601C2.71937 21.9038 2.52382 21.7916 2.36712 21.6349C2.21041 21.4782 2.09818 21.2826 2.04194 21.0683C1.98569 20.8539 1.98744 20.6285 2.04701 20.415L3.11501 16.592C2.38036 15.1729 1.99793 13.5979 2.00001 12C2.00001 6.477 6.47701 2 12 2ZM12 3.5C9.74567 3.5 7.58366 4.39553 5.9896 5.98959C4.39554 7.58365 3.50001 9.74566 3.50001 12C3.50001 13.47 3.87301 14.883 4.57301 16.137L4.72301 16.407L3.61101 20.391L7.59801 19.279L7.86801 19.429C9.00239 20.0597 10.2661 20.4222 11.5624 20.4888C12.8586 20.5554 14.1528 20.3242 15.3458 19.8131C16.5389 19.3019 17.599 18.5244 18.445 17.54C19.2909 16.5556 19.9002 15.3906 20.2261 14.1343C20.552 12.8779 20.5858 11.5636 20.325 10.2922C20.0643 9.02073 19.5158 7.82589 18.7216 6.79927C17.9275 5.77264 16.9088 4.94152 15.7437 4.36962C14.5786 3.79773 13.2979 3.50025 12 3.5V3.5Z" fill="#D69129"/>
<path d="M12.0001 2.51843C17.2368 2.51843 21.4816 6.76332 21.4816 12C21.4816 17.2366 17.2368 21.4815 12.0001 21.4815C10.4868 21.4836 8.99523 21.122 7.65092 20.4272L4.02328 21.4388C3.82089 21.4953 3.60712 21.497 3.40388 21.4437C3.20063 21.3903 3.01522 21.2839 2.86664 21.1353C2.71806 20.9868 2.61165 20.8013 2.55832 20.5981C2.50498 20.3949 2.50664 20.1811 2.56313 19.9787L3.57575 16.3539C2.87919 15.0084 2.51659 13.5151 2.51856 12C2.51856 6.76332 6.76345 2.51843 12.0001 2.51843ZM12.0001 3.94066C9.86264 3.94066 7.81272 4.78977 6.30131 6.30118C4.7899 7.81259 3.94079 9.86251 3.94079 12C3.94079 13.3938 4.29445 14.7335 4.95816 15.9225L5.10039 16.1785L4.04604 19.9559L7.82633 18.9016L8.08233 19.0438C9.1579 19.6418 10.3561 19.9855 11.5851 20.0487C12.8141 20.1118 14.0413 19.8926 15.1725 19.408C16.3037 18.9233 17.3088 18.1861 18.1109 17.2528C18.913 16.3194 19.4907 15.2148 19.7997 14.0236C20.1087 12.8324 20.1408 11.5862 19.8935 10.3807C19.6463 9.17517 19.1262 8.04227 18.3733 7.06888C17.6203 6.09548 16.6544 5.30745 15.5497 4.7652C14.445 4.22295 13.2307 3.9409 12.0001 3.94066V3.94066Z" fill="#D69129"/>
</svg>
