<svg width="20" height="20" viewBox="0 0 20 20" fill="none" xmlns="http://www.w3.org/2000/svg">
<path d="M10 0C15.525 0 20 4.475 20 10C20 15.525 15.525 20 10 20C4.475 20 0 15.525 0 10C0 4.475 4.475 0 10 0ZM11.4125 11.725L11.85 3.65H8.15L8.5875 11.725H11.4125ZM11.3 15.925C11.6 15.6375 11.7625 15.2375 11.7625 14.725C11.7625 14.2 11.6125 13.8 11.3125 13.5125C11.0125 13.225 10.575 13.075 9.9875 13.075C9.4 13.075 8.9625 13.225 8.65 13.5125C8.3375 13.8 8.1875 14.2 8.1875 14.725C8.1875 15.2375 8.35 15.6375 8.6625 15.925C8.9875 16.2125 9.425 16.35 9.9875 16.35C10.55 16.35 10.9875 16.2125 11.3 15.925V15.925Z" fill="#D69129"/>
</svg>
