<svg width="24" height="25" viewBox="0 0 24 25" fill="none" xmlns="http://www.w3.org/2000/svg">
<mask id="path-1-inside-1_506_162" fill="white">
<path d="M12 6.91736C12.1989 6.91736 12.9092 6.91742 13.1288 7.13703C13.2695 7.27768 13.3485 7.46845 13.3485 7.66736L12.75 13.9174C12.75 14.1163 12.671 14.307 12.5303 14.4477C12.3897 14.5883 12.1989 14.6674 12 14.6674C11.8011 14.6674 11.6103 14.5883 11.4697 14.4477C11.329 14.307 11.25 14.1163 11.25 13.9174L10.5693 7.66736C10.5693 7.46845 10.6323 7.29375 10.7729 7.1531C11.0087 6.91735 11.8011 6.91736 12 6.91736ZM12 17.9154C12.2652 17.9154 12.5196 17.81 12.7071 17.6225C12.8946 17.4349 13 17.1806 13 16.9154C13 16.6501 12.8946 16.3958 12.7071 16.2082C12.5196 16.0207 12.2652 15.9154 12 15.9154C11.7348 15.9154 11.4804 16.0207 11.2929 16.2082C11.1053 16.3958 11 16.6501 11 16.9154C11 17.1806 11.1053 17.4349 11.2929 17.6225C11.4804 17.81 11.7348 17.9154 12 17.9154Z"/>
</mask>
<path d="M12 6.91736C12.1989 6.91736 12.9092 6.91742 13.1288 7.13703C13.2695 7.27768 13.3485 7.46845 13.3485 7.66736L12.75 13.9174C12.75 14.1163 12.671 14.307 12.5303 14.4477C12.3897 14.5883 12.1989 14.6674 12 14.6674C11.8011 14.6674 11.6103 14.5883 11.4697 14.4477C11.329 14.307 11.25 14.1163 11.25 13.9174L10.5693 7.66736C10.5693 7.46845 10.6323 7.29375 10.7729 7.1531C11.0087 6.91735 11.8011 6.91736 12 6.91736ZM12 17.9154C12.2652 17.9154 12.5196 17.81 12.7071 17.6225C12.8946 17.4349 13 17.1806 13 16.9154C13 16.6501 12.8946 16.3958 12.7071 16.2082C12.5196 16.0207 12.2652 15.9154 12 15.9154C11.7348 15.9154 11.4804 16.0207 11.2929 16.2082C11.1053 16.3958 11 16.6501 11 16.9154C11 17.1806 11.1053 17.4349 11.2929 17.6225C11.4804 17.81 11.7348 17.9154 12 17.9154Z" fill="#393D3F"/>
<path d="M12 6.91736L12 5.91736L12 6.91736ZM13.1288 7.13703L13.8359 6.42992L13.8358 6.42982L13.1288 7.13703ZM13.3485 7.66736L14.344 7.76269L14.3485 7.71513V7.66736H13.3485ZM12.75 13.9174L11.7545 13.822L11.75 13.8696V13.9174H12.75ZM11.25 13.9174H12.25V13.8631L12.2441 13.8091L11.25 13.9174ZM10.5693 7.66736H9.56934V7.72165L9.57521 7.77562L10.5693 7.66736ZM12 7.91736C12.099 7.91736 12.2732 7.91809 12.438 7.93778C12.521 7.9477 12.5721 7.95921 12.5942 7.966C12.6039 7.96898 12.5926 7.96643 12.5677 7.95366C12.5446 7.94176 12.487 7.90936 12.4218 7.84424L13.8358 6.42982C13.6097 6.20379 13.3395 6.10268 13.1813 6.05412C13.0023 5.99913 12.8221 5.96945 12.6753 5.9519C12.3803 5.91666 12.0998 5.91736 12 5.91736L12 7.91736ZM12.4217 7.84413C12.3748 7.79725 12.3485 7.73366 12.3485 7.66736H14.3485C14.3485 7.20323 14.1641 6.75811 13.8359 6.42992L12.4217 7.84413ZM12.3531 7.57203L11.7545 13.822L13.7454 14.0127L14.344 7.76269L12.3531 7.57203ZM11.75 13.9174C11.75 13.8511 11.7763 13.7875 11.8232 13.7406L13.2374 15.1548C13.5656 14.8266 13.75 14.3815 13.75 13.9174H11.75ZM11.8232 13.7406C11.8701 13.6937 11.9337 13.6674 12 13.6674V15.6674C12.4641 15.6674 12.9092 15.483 13.2374 15.1548L11.8232 13.7406ZM12 13.6674C12.0663 13.6674 12.1299 13.6937 12.1768 13.7406L10.7625 15.1548C11.0907 15.483 11.5359 15.6674 12 15.6674V13.6674ZM12.1768 13.7406C12.2236 13.7875 12.25 13.8511 12.25 13.9174H10.25C10.25 14.3815 10.4344 14.8266 10.7625 15.1548L12.1768 13.7406ZM12.2441 13.8091L11.5635 7.55909L9.57521 7.77562L10.2559 14.0256L12.2441 13.8091ZM11.5693 7.66736C11.5693 7.67403 11.5681 7.70515 11.551 7.74917C11.5332 7.79538 11.5063 7.83393 11.48 7.86021L10.0658 6.446C9.71424 6.79756 9.56934 7.23823 9.56934 7.66736H11.5693ZM11.48 7.86021C11.4137 7.92658 11.3558 7.9579 11.3364 7.96768C11.3149 7.97854 11.308 7.97927 11.3234 7.97466C11.3567 7.96468 11.4207 7.95122 11.5162 7.94008C11.7054 7.91799 11.9018 7.91736 12 7.91736L12 5.91736C11.8992 5.91736 11.6 5.91672 11.2843 5.95357C11.1274 5.97189 10.9367 6.00263 10.7489 6.05895C10.585 6.10809 10.3005 6.21131 10.0658 6.446L11.48 7.86021ZM12 18.9154C12.5304 18.9154 13.0391 18.7046 13.4142 18.3296L12 16.9154L12 16.9154V18.9154ZM13.4142 18.3296C13.7893 17.9545 14 17.4458 14 16.9154H12L12 16.9154L13.4142 18.3296ZM14 16.9154C14 16.3849 13.7893 15.8762 13.4142 15.5011L12 16.9154L12 16.9154H14ZM13.4142 15.5011C13.0391 15.1261 12.5304 14.9154 12 14.9154V16.9154L12 16.9154L13.4142 15.5011ZM12 14.9154C11.4695 14.9154 10.9608 15.1261 10.5858 15.5011L12 16.9154L12 16.9154V14.9154ZM10.5858 15.5011C10.2107 15.8762 9.99998 16.3849 9.99998 16.9154H12L12 16.9154L10.5858 15.5011ZM9.99998 16.9154C9.99998 17.4458 10.2107 17.9545 10.5858 18.3296L12 16.9154L12 16.9154H9.99998ZM10.5858 18.3296C10.9608 18.7046 11.4696 18.9154 12 18.9154V16.9154L12 16.9154L10.5858 18.3296Z" fill="#393D3F" mask="url(#path-1-inside-1_506_162)"/>
<circle cx="12.0003" cy="17.0409" r="1.24806" fill="#393D3F"/>
<path d="M12 2.41736C17.523 2.41736 22 6.89436 22 12.4174C22 17.9404 17.523 22.4174 12 22.4174C10.404 22.4196 8.83083 22.0382 7.41301 21.3054L3.58701 22.3724C3.37355 22.4319 3.14809 22.4337 2.93373 22.3774C2.71937 22.3212 2.52382 22.209 2.36712 22.0522C2.21041 21.8955 2.09818 21.7 2.04194 21.4856C1.98569 21.2713 1.98744 21.0458 2.04701 20.8324L3.11501 17.0094C2.38036 15.5903 1.99793 14.0153 2.00001 12.4174C2.00001 6.89436 6.47701 2.41736 12 2.41736ZM12 3.91736C9.74567 3.91736 7.58366 4.81289 5.9896 6.40695C4.39554 8.00101 3.50001 10.163 3.50001 12.4174C3.50001 13.8874 3.87301 15.3004 4.57301 16.5544L4.72301 16.8244L3.61101 20.8084L7.59801 19.6964L7.86801 19.8464C9.00239 20.4771 10.2661 20.8396 11.5624 20.9062C12.8586 20.9727 14.1528 20.7416 15.3458 20.2305C16.5389 19.7193 17.599 18.9417 18.445 17.9574C19.2909 16.973 19.9002 15.808 20.2261 14.5516C20.552 13.2953 20.5858 11.981 20.325 10.7095C20.0643 9.43809 19.5158 8.24324 18.7216 7.21662C17.9275 6.19 16.9088 5.35888 15.7437 4.78698C14.5786 4.21509 13.2979 3.91761 12 3.91736V3.91736Z" fill="#393D3F"/>
<path d="M12.0001 2.93579C17.2368 2.93579 21.4816 7.18068 21.4816 12.4173C21.4816 17.654 17.2368 21.8989 12.0001 21.8989C10.4868 21.901 8.99523 21.5394 7.65092 20.8445L4.02328 21.8562C3.82089 21.9127 3.60712 21.9143 3.40388 21.861C3.20063 21.8077 3.01522 21.7013 2.86664 21.5527C2.71806 21.4041 2.61165 21.2187 2.55832 21.0155C2.50498 20.8122 2.50664 20.5984 2.56313 20.396L3.57575 16.7713C2.87919 15.4258 2.51659 13.9324 2.51856 12.4173C2.51856 7.18068 6.76345 2.93579 12.0001 2.93579ZM12.0001 4.35802C9.86264 4.35802 7.81272 5.20713 6.30131 6.71854C4.7899 8.22995 3.94079 10.2799 3.94079 12.4173C3.94079 13.8111 4.29445 15.1509 4.95816 16.3398L5.10039 16.5958L4.04604 20.3733L7.82633 19.3189L8.08233 19.4612C9.1579 20.0592 10.3561 20.4029 11.5851 20.466C12.8141 20.5292 14.0413 20.31 15.1725 19.8253C16.3037 19.3407 17.3088 18.6034 18.1109 17.6701C18.913 16.7368 19.4907 15.6322 19.7997 14.4409C20.1087 13.2497 20.1408 12.0036 19.8935 10.7981C19.6463 9.59253 19.1262 8.45963 18.3733 7.48623C17.6203 6.51284 16.6544 5.72481 15.5497 5.18256C14.445 4.64031 13.2307 4.35826 12.0001 4.35802V4.35802Z" fill="#393D3F"/>
</svg>
