<svg width="20" height="20" viewBox="0 0 20 20" fill="none" xmlns="http://www.w3.org/2000/svg">
<path d="M7.08329 2.5C7.08329 2.00555 7.22991 1.5222 7.50462 1.11108C7.77932 0.699952 8.16977 0.379521 8.62658 0.190302C9.0834 0.00108321 9.58606 -0.0484251 10.071 0.0480379C10.556 0.144501 11.0014 0.382603 11.3511 0.732234C11.7007 1.08187 11.9388 1.52732 12.0352 2.01228C12.1317 2.49723 12.0822 2.99989 11.893 3.45671C11.7038 3.91352 11.3833 4.30397 10.9722 4.57867C10.5611 4.85338 10.0777 5 9.58329 5C8.92025 5 8.28436 4.73661 7.81552 4.26777C7.34668 3.79893 7.08329 3.16304 7.08329 2.5ZM18.7499 16.6667H17.9299L16.9999 14.3333C16.7849 13.7911 16.4115 13.3262 15.9284 12.9992C15.4453 12.6722 14.875 12.4982 14.2916 12.5H11.25C11.1394 12.5 11.0335 12.4561 10.9553 12.378C10.8772 12.2998 10.8333 12.1938 10.8333 12.0833V10.8333H14.5833C14.9148 10.8333 15.2327 10.7016 15.4672 10.4672C15.7016 10.2328 15.8333 9.91485 15.8333 9.58333C15.8333 9.25181 15.7016 8.93387 15.4672 8.69945C15.2327 8.46503 14.9148 8.33333 14.5833 8.33333H10.8333V7.08333C10.8333 6.75181 10.7016 6.43387 10.4672 6.19945C10.2327 5.96503 9.91481 5.83333 9.58329 5.83333C9.25177 5.83333 8.93383 5.96503 8.69941 6.19945C8.46498 6.43387 8.33329 6.75181 8.33329 7.08333V12.0833C8.33581 12.7262 8.55067 13.3502 8.94446 13.8584C9.33824 14.3666 9.88889 14.7304 10.5108 14.8933C10.2419 15.5539 9.80755 16.1343 9.24958 16.5785C8.69162 17.0228 8.02876 17.3161 7.32471 17.4302C6.62066 17.5443 5.89909 17.4755 5.22936 17.2302C4.55962 16.9849 3.96423 16.5715 3.5004 16.0297C3.03658 15.4878 2.71991 14.8358 2.58085 14.1363C2.44178 13.4367 2.48498 12.7132 2.7063 12.0351C2.92761 11.3571 3.31961 10.7474 3.84461 10.2646C4.36961 9.78181 5.00996 9.44217 5.70413 9.27833C6.02681 9.20208 6.30598 9.00077 6.48023 8.71869C6.65448 8.4366 6.70954 8.09685 6.63329 7.77417C6.55704 7.45149 6.35573 7.17231 6.07365 6.99806C5.79156 6.82381 5.45181 6.76875 5.12913 6.845C3.97969 7.11685 2.92311 7.68919 2.0675 8.50348C1.2119 9.31776 0.587995 10.3447 0.259629 11.4793C-0.0687364 12.6139 -0.0897714 13.8154 0.198677 14.9608C0.487125 16.1061 1.0747 17.1543 1.90127 17.9981C2.72785 18.8418 3.76375 19.4508 4.90297 19.7627C6.04218 20.0746 7.24382 20.0783 8.38491 19.7733C9.526 19.4683 10.5656 18.8656 11.3973 18.0269C12.229 17.1882 12.8229 16.1436 13.1183 15H14.2849C14.3681 15 14.4493 15.0248 14.5182 15.0712C14.5871 15.1177 14.6405 15.1837 14.6716 15.2608L15.9216 18.3808C16.0145 18.613 16.1748 18.8119 16.3818 18.952C16.5889 19.0921 16.8333 19.1669 17.0833 19.1667H18.7499C19.0815 19.1667 19.3994 19.035 19.6338 18.8005C19.8682 18.5661 19.9999 18.2482 19.9999 17.9167C19.9999 17.5851 19.8682 17.2672 19.6338 17.0328C19.3994 16.7984 19.0815 16.6667 18.7499 16.6667Z" fill="#393D3F"/>
</svg>
