<svg width="19" height="19" viewBox="0 0 19 19" fill="none" xmlns="http://www.w3.org/2000/svg">
<g clip-path="url(#clip0_106_270)">
<path d="M9.5 0C7.62108 0 5.78435 0.557165 4.22209 1.60104C2.65982 2.64491 1.44218 4.12861 0.723149 5.86451C0.00411622 7.6004 -0.184015 9.51054 0.182544 11.3534C0.549104 13.1962 1.45389 14.8889 2.78249 16.2175C4.11109 17.5461 5.80383 18.4509 7.64665 18.8175C9.48947 19.184 11.3996 18.9959 13.1355 18.2768C14.8714 17.5578 16.3551 16.3402 17.399 14.7779C18.4428 13.2156 19 11.3789 19 9.5C18.9973 6.98128 17.9955 4.5665 16.2145 2.78549C14.4335 1.00449 12.0187 0.00272419 9.5 0V0ZM9.5 16.625C8.09081 16.625 6.71327 16.2071 5.54157 15.4242C4.36987 14.6413 3.45664 13.5285 2.91736 12.2266C2.37809 10.9247 2.23699 9.49209 2.51191 8.10998C2.78683 6.72786 3.46542 5.45831 4.46187 4.46186C5.45832 3.46541 6.72787 2.78682 8.10999 2.5119C9.4921 2.23698 10.9247 2.37808 12.2266 2.91736C13.5285 3.45663 14.6413 4.36986 15.4242 5.54156C16.2071 6.71326 16.625 8.09081 16.625 9.5C16.6229 11.389 15.8716 13.2001 14.5358 14.5358C13.2001 15.8716 11.389 16.6229 9.5 16.625Z" fill="#393D3F"/>
<path d="M8.31257 8.75187L6.41257 9.93937C6.28035 10.0222 6.16574 10.1302 6.07528 10.2573C5.98482 10.3843 5.92028 10.528 5.88536 10.68C5.85044 10.8321 5.84582 10.9895 5.87176 11.1433C5.89769 11.2972 5.95368 11.4444 6.03653 11.5765C6.11931 11.7088 6.22733 11.8234 6.35442 11.9138C6.4815 12.0043 6.62517 12.0688 6.7772 12.1038C6.92924 12.1387 7.08667 12.1433 7.24049 12.1174C7.39431 12.0914 7.54152 12.0354 7.6737 11.9526L9.94499 10.5276C10.1729 10.3848 10.3606 10.1863 10.4906 9.95082C10.6205 9.71536 10.6883 9.45068 10.6876 9.18175V6.15283C10.6876 5.83789 10.5625 5.53584 10.3398 5.31314C10.1171 5.09044 9.81502 4.96533 9.50007 4.96533C9.18513 4.96533 8.88308 5.09044 8.66038 5.31314C8.43768 5.53584 8.31257 5.83789 8.31257 6.15283V8.75187Z" fill="#393D3F"/>
</g>
<defs>
<clipPath id="clip0_106_270">
<rect width="19" height="19" fill="white"/>
</clipPath>
</defs>
</svg>
