<svg width="17" height="19" viewBox="0 0 17 19" fill="none" xmlns="http://www.w3.org/2000/svg">
<path d="M8.3125 0C6.10872 0.00272343 3.99599 0.879376 2.43768 2.43768C0.879376 3.99599 0.00272343 6.10872 0 8.3125C0 10.5497 1.74167 13.6689 5.17829 17.5821C5.5702 18.0275 6.0525 18.3842 6.59306 18.6286C7.13363 18.8729 7.72005 18.9993 8.31329 18.9993C8.90652 18.9993 9.49295 18.8729 10.0335 18.6286C10.5741 18.3842 11.0564 18.0275 11.4483 17.5821C14.8833 13.6697 16.625 10.5505 16.625 8.3125C16.6223 6.10872 15.7456 3.99599 14.1873 2.43768C12.629 0.879376 10.5163 0.00272343 8.3125 0V0ZM9.66308 16.0162C9.49045 16.2018 9.28143 16.3498 9.04906 16.451C8.81669 16.5522 8.56595 16.6044 8.3125 16.6044C8.05904 16.6044 7.80831 16.5522 7.57593 16.451C7.34356 16.3498 7.13454 16.2018 6.96191 16.0162C4.04621 12.6952 2.37025 9.88712 2.37025 8.31329C2.37025 6.73857 2.9958 5.22834 4.1093 4.11484C5.2228 3.00135 6.73302 2.37579 8.30775 2.37579C9.88247 2.37579 11.3927 3.00135 12.5062 4.11484C13.6197 5.22834 14.2452 6.73857 14.2452 8.31329C14.25 9.88712 12.5788 12.6952 9.66308 16.0162Z" fill="#FDFDFF"/>
<path d="M8.31245 4.79358C7.6293 4.79358 6.9615 4.99615 6.39348 5.37569C5.82547 5.75522 5.38275 6.29467 5.12132 6.92581C4.8599 7.55695 4.79149 8.25145 4.92477 8.92146C5.05804 9.59148 5.38701 10.2069 5.87007 10.69C6.35312 11.173 6.96858 11.502 7.6386 11.6353C8.30862 11.7686 9.00311 11.7002 9.63426 11.4387C10.2654 11.1773 10.8048 10.7346 11.1844 10.1666C11.5639 9.59856 11.7665 8.93076 11.7665 8.24761C11.7655 7.33187 11.4012 6.45393 10.7537 5.8064C10.1061 5.15887 9.2282 4.79463 8.31245 4.79358V4.79358ZM8.31245 9.32665C8.09903 9.32665 7.89041 9.26337 7.71296 9.1448C7.53552 9.02624 7.39721 8.85771 7.31554 8.66054C7.23387 8.46338 7.2125 8.24642 7.25414 8.0371C7.29577 7.82779 7.39854 7.63552 7.54945 7.48462C7.70036 7.33371 7.89262 7.23094 8.10194 7.18931C8.31125 7.14767 8.52821 7.16904 8.72538 7.25071C8.92255 7.33238 9.09107 7.47068 9.20964 7.64813C9.32821 7.82558 9.39149 8.0342 9.39149 8.24761C9.39128 8.53373 9.27753 8.80806 9.07522 9.01038C8.8729 9.21269 8.59856 9.32644 8.31245 9.32665V9.32665Z" fill="#FDFDFF"/>
</svg>
