<svg width="122" height="136" viewBox="0 0 122 136" fill="none" xmlns="http://www.w3.org/2000/svg">
<g clip-path="url(#clip0_204_146)">
<path d="M116.792 38.6827L120.888 37.3283L116.792 38.6827C117.395 40.505 117.447 42.6226 117.447 48.8225V86.7229C117.447 92.9228 117.395 95.0404 116.792 96.8627L120.888 98.2172L116.792 96.8628C116.237 98.5412 115.344 100.088 114.168 101.408C112.891 102.841 111.083 103.945 105.714 107.045L72.8912 125.995C67.522 129.095 65.6622 130.109 63.7827 130.498C62.0516 130.856 60.2654 130.856 58.5343 130.498C56.6548 130.109 54.795 129.095 49.4257 125.995L16.603 107.045C11.2338 103.945 9.42573 102.841 8.1489 101.408C6.9729 100.088 6.07981 98.5412 5.52473 96.8627C4.92206 95.0404 4.87027 92.9228 4.87027 86.7229V48.8225C4.87027 42.6226 4.92206 40.505 5.52473 38.6827C6.07981 37.0043 6.9729 35.4574 8.1489 34.1375C9.42573 32.7044 11.2338 31.6007 16.603 28.5008L49.4257 9.55058C54.795 6.45064 56.6548 5.43668 58.5343 5.04745C60.2654 4.68896 62.0516 4.68896 63.7827 5.04745C65.6622 5.43668 67.522 6.45064 72.8912 9.55058L105.714 28.5008C111.083 31.6007 112.891 32.7044 114.168 34.1375C115.344 35.4574 116.237 37.0043 116.792 38.6827Z" fill="url(#paint0_linear_204_146)" stroke="black" stroke-width="8.62702"/>
<path d="M21.8165 66.3378L3.07959 76.5364L4.73998 97.8822L60.4762 131.561L115.738 99.3053V60.6457L98.4243 53.5304L79.4503 60.6457L77.5528 49.0243L60.4762 38.5888L44.8226 49.0243L43.6368 76.5364L21.8165 66.3378Z" fill="#FDFDFF" stroke="black" stroke-width="1.7254"/>
<path d="M116.792 38.6827L120.888 37.3283L116.792 38.6827C117.395 40.505 117.447 42.6226 117.447 48.8225V86.7229C117.447 92.9228 117.395 95.0404 116.792 96.8627L120.888 98.2172L116.792 96.8628C116.237 98.5412 115.344 100.088 114.168 101.408C112.891 102.841 111.083 103.945 105.714 107.045L72.8912 125.995C67.522 129.095 65.6622 130.109 63.7827 130.498C62.0516 130.856 60.2654 130.856 58.5343 130.498C56.6548 130.109 54.795 129.095 49.4257 125.995L16.603 107.045C11.2338 103.945 9.42573 102.841 8.1489 101.408C6.9729 100.088 6.07981 98.5412 5.52473 96.8627C4.92206 95.0404 4.87027 92.9228 4.87027 86.7229V48.8225C4.87027 42.6226 4.92206 40.505 5.52473 38.6827C6.07981 37.0043 6.9729 35.4574 8.1489 34.1375C9.42573 32.7044 11.2338 31.6007 16.603 28.5008L49.4257 9.55058C54.795 6.45064 56.6548 5.43668 58.5343 5.04745C60.2654 4.68896 62.0516 4.68896 63.7827 5.04745C65.6622 5.43668 67.522 6.45064 72.8912 9.55058L105.714 28.5008C111.083 31.6007 112.891 32.7044 114.168 34.1375C115.344 35.4574 116.237 37.0043 116.792 38.6827Z" stroke="black" stroke-width="8.62702"/>
<path d="M2.5057 75.394L22.1919 65.0818C22.6816 64.8254 23.2645 64.819 23.7596 65.0647L44.5733 75.394M44.5733 75.394L44.5733 50.0076C44.5733 49.3655 44.9298 48.7765 45.4987 48.4788L60.7191 40.515C61.2108 40.2577 61.7963 40.2526 62.2923 40.5014L78.218 48.4856C78.8017 48.7782 79.1701 49.3752 79.1701 50.0281L79.1702 61.1446M44.5733 75.394L44.5732 124.979M79.1702 124.979L79.1702 61.1446M79.1702 61.1446L97.4279 52.2498C97.8995 52.0201 98.45 52.0173 98.9239 52.2424L117.665 61.1446" stroke="black" stroke-width="8.62702"/>
<path d="M63.1499 60.1049C63.1499 59.7908 63.3206 59.5015 63.5955 59.3497L70.4475 55.5653C71.0225 55.2477 71.7273 55.6636 71.7273 56.3205V61.0086C71.7273 61.3227 71.5566 61.612 71.2817 61.7638L64.4297 65.5482C63.8547 65.8658 63.1499 65.4499 63.1499 64.7931V60.1049Z" fill="black"/>
<path d="M100.951 77.9167C100.951 77.6026 101.122 77.3134 101.397 77.1615L109.548 72.6597C110.123 72.3422 110.828 72.758 110.828 73.4149V79.1115C110.828 79.4256 110.657 79.7148 110.382 79.8667L102.231 84.3685C101.656 84.6861 100.951 84.2702 100.951 83.6133V77.9167Z" fill="black"/>
<path d="M28.6113 88.5958C28.6113 88.2817 28.782 87.9925 29.0569 87.8406L35.909 84.0562C36.4839 83.7386 37.1888 84.1545 37.1888 84.8114V89.4996C37.1888 89.8136 37.0181 90.1029 36.7431 90.2547L29.8911 94.0391C29.3161 94.3567 28.6113 93.9408 28.6113 93.284V88.5958Z" fill="black"/>
<path d="M63.1499 71.5014C63.1499 71.1873 63.3206 70.898 63.5955 70.7462L70.4475 66.9618C71.0225 66.6442 71.7273 67.0601 71.7273 67.717V72.4051C71.7273 72.7192 71.5566 73.0085 71.2817 73.1603L64.4297 76.9447C63.8547 77.2623 63.1499 76.8464 63.1499 76.1895V71.5014Z" fill="black"/>
<path d="M100.951 89.3133C100.951 88.9992 101.122 88.7099 101.397 88.5581L109.548 84.0562C110.123 83.7386 110.828 84.1545 110.828 84.8114V90.5081C110.828 90.8222 110.657 91.1115 110.382 91.2633L102.231 95.7652C101.656 96.0828 100.951 95.6669 100.951 95.01V89.3133Z" fill="black"/>
<path d="M28.6113 99.993C28.6113 99.6789 28.782 99.3897 29.0569 99.2378L35.909 95.4534C36.4839 95.1359 37.1888 95.5517 37.1888 96.2086V100.897C37.1888 101.211 37.0181 101.5 36.7431 101.652L29.8911 105.436C29.3161 105.754 28.6113 105.338 28.6113 104.681V99.993Z" fill="black"/>
<path d="M63.1499 82.8979C63.1499 82.5839 63.3206 82.2946 63.5955 82.1428L70.4475 78.3584C71.0225 78.0408 71.7273 78.4567 71.7273 79.1135V83.8017C71.7273 84.1158 71.5566 84.405 71.2817 84.5569L64.4297 88.3413C63.8547 88.6589 63.1499 88.243 63.1499 87.5861V82.8979Z" fill="black"/>
<path d="M63.1499 94.2945C63.1499 93.9804 63.3206 93.6911 63.5955 93.5393L70.4475 89.7549C71.0225 89.4373 71.7273 89.8532 71.7273 90.51V95.1982C71.7273 95.5123 71.5566 95.8016 71.2817 95.9534L64.4297 99.7378C63.8547 100.055 63.1499 99.6395 63.1499 98.9826V94.2945Z" fill="black"/>
<path d="M63.1499 105.691C63.1499 105.377 63.3206 105.088 63.5955 104.936L70.4475 101.151C71.0225 100.834 71.7273 101.25 71.7273 101.907V106.595C71.7273 106.909 71.5566 107.198 71.2817 107.35L64.4297 111.134C63.8547 111.452 63.1499 111.036 63.1499 110.379V105.691Z" fill="black"/>
</g>
<defs>
<linearGradient id="paint0_linear_204_146" x1="131.135" y1="109.872" x2="2.34116" y2="-11.0914" gradientUnits="userSpaceOnUse">
<stop stop-color="#B8E0D0"/>
<stop offset="0.0001" stop-color="#B8E0D0"/>
<stop offset="1" stop-color="#DBF0E8"/>
</linearGradient>
<clipPath id="clip0_204_146">
<rect width="122" height="136" fill="white"/>
</clipPath>
</defs>
</svg>
