<svg width="110" height="132" viewBox="0 0 110 132" fill="none" xmlns="http://www.w3.org/2000/svg">
<g clip-path="url(#clip0_193_165)">
<path d="M9.98035 127.34C8.12793 127.34 6.5307 126.943 5.18865 126.149C3.84659 125.337 2.80697 124.193 2.06979 122.719C1.35151 121.225 0.992364 119.477 0.992364 117.473C0.992364 115.47 1.39876 113.74 2.21155 112.285C3.02435 110.829 4.14903 109.705 5.58559 108.911C7.04106 108.117 8.72335 107.72 10.6325 107.72C12.2959 107.72 13.7891 108.051 15.1123 108.712C16.4543 109.374 17.5034 110.347 18.2595 111.633L14.4035 113.22C14.101 112.729 13.6285 112.304 12.9858 111.944C12.362 111.585 11.5587 111.406 10.5758 111.406C9.68736 111.406 8.87457 111.633 8.13739 112.086C7.4002 112.54 6.81423 113.22 6.37948 114.128C5.94473 115.016 5.72736 116.131 5.72736 117.473C5.72736 119.458 6.18101 120.989 7.08832 122.067C7.99562 123.125 9.18646 123.654 10.6608 123.654C11.3602 123.654 12.0312 123.56 12.6739 123.371C13.3166 123.163 13.8458 122.823 14.2617 122.35C14.6775 121.878 14.8855 121.244 14.8855 120.45V119.912H10.6325V116.282H19.3653V127H16.4165L15.7928 124.902C14.583 126.527 12.6456 127.34 9.98035 127.34ZM21.7966 127V112.937H25.199L25.9645 115.517C26.3992 114.383 26.9947 113.589 27.7508 113.135C28.5068 112.682 29.4236 112.483 30.501 112.54V116.85C30.2742 116.812 30.0757 116.793 29.9056 116.793C29.7355 116.774 29.5465 116.764 29.3385 116.764C28.2989 116.764 27.4956 117.01 26.9285 117.502C26.3803 117.993 26.1063 118.796 26.1063 119.912V127H21.7966ZM39.3209 127.34C37.8087 127.34 36.4666 127.047 35.2947 126.461C34.1417 125.856 33.2344 124.996 32.5728 123.881C31.9301 122.766 31.6088 121.433 31.6088 119.883C31.6088 118.39 31.949 117.095 32.6295 115.999C33.3289 114.903 34.2456 114.052 35.3798 113.447C36.5328 112.842 37.7898 112.54 39.1508 112.54C40.7007 112.54 42.0239 112.908 43.1202 113.646C44.2354 114.364 45.0766 115.366 45.6437 116.651C46.2107 117.918 46.447 119.382 46.3525 121.046H35.9468C36.0224 122.029 36.3816 122.766 37.0243 123.257C37.6858 123.749 38.4136 123.995 39.2075 123.995C39.869 123.995 40.4361 123.9 40.9087 123.711C41.4001 123.503 41.7782 123.248 42.0428 122.945L45.4735 124.193C44.7364 125.27 43.8101 126.064 42.6949 126.575C41.5986 127.085 40.4739 127.34 39.3209 127.34ZM35.9468 118.494H42.3547C42.3358 117.587 42.0239 116.906 41.419 116.453C40.8141 115.98 40.0959 115.744 39.2642 115.744C38.4514 115.744 37.7236 115.961 37.081 116.396C36.4572 116.831 36.0792 117.53 35.9468 118.494ZM55.3803 127.34C53.8682 127.34 52.5261 127.047 51.3542 126.461C50.2011 125.856 49.2938 124.996 48.6323 123.881C47.9896 122.766 47.6683 121.433 47.6683 119.883C47.6683 118.39 48.0085 117.095 48.689 115.999C49.3884 114.903 50.3051 114.052 51.4392 113.447C52.5923 112.842 53.8493 112.54 55.2102 112.54C56.7602 112.54 58.0834 112.908 59.1797 113.646C60.2949 114.364 61.1361 115.366 61.7031 116.651C62.2702 117.918 62.5065 119.382 62.412 121.046H52.0063C52.0819 122.029 52.4411 122.766 53.0837 123.257C53.7453 123.749 54.473 123.995 55.2669 123.995C55.9285 123.995 56.4956 123.9 56.9681 123.711C57.4596 123.503 57.8376 123.248 58.1023 122.945L61.533 124.193C60.7958 125.27 59.8696 126.064 58.7544 126.575C57.6581 127.085 56.5334 127.34 55.3803 127.34ZM52.0063 118.494H58.4141C58.3952 117.587 58.0834 116.906 57.4785 116.453C56.8736 115.98 56.1553 115.744 55.3236 115.744C54.5108 115.744 53.7831 115.961 53.1404 116.396C52.5167 116.831 52.1386 117.53 52.0063 118.494ZM70.3907 127C69.2377 127 68.3209 126.905 67.6405 126.716C66.96 126.509 66.4685 126.121 66.1661 125.554C65.8826 124.968 65.7408 124.127 65.7408 123.031V116.226H63.4158V112.937H65.7408V109.421H70.0505V112.937H73.1126V116.226H70.0505V121.896C70.0505 122.558 70.1734 122.993 70.4191 123.201C70.6837 123.39 71.1657 123.484 71.8651 123.484H73.1126V127H70.3907ZM83.2037 127.34C80.2361 127.34 78.1285 126.631 76.881 125.214C75.6523 123.796 75.038 121.632 75.038 118.721V108.06H79.5178V119.089C79.5178 120.016 79.6029 120.828 79.773 121.528C79.962 122.208 80.3212 122.738 80.8504 123.116C81.3797 123.494 82.1641 123.683 83.2037 123.683C84.2434 123.683 85.0184 123.494 85.5287 123.116C86.058 122.738 86.4077 122.208 86.5778 121.528C86.7668 120.828 86.8613 120.016 86.8613 119.089V108.06H91.3411V118.721C91.3411 121.632 90.7174 123.796 89.4698 125.214C88.2223 126.631 86.1336 127.34 83.2037 127.34ZM94.0088 131.565V112.937H97.7514L98.3185 114.865C98.7721 114.09 99.4053 113.513 100.218 113.135C101.05 112.738 101.844 112.54 102.6 112.54C103.81 112.54 104.878 112.842 105.804 113.447C106.749 114.052 107.486 114.912 108.015 116.027C108.545 117.124 108.809 118.437 108.809 119.968C108.809 121.499 108.545 122.823 108.015 123.938C107.486 125.034 106.749 125.875 105.804 126.461C104.878 127.047 103.81 127.34 102.6 127.34C101.844 127.34 101.05 127.142 100.218 126.745C99.4053 126.348 98.7721 125.762 98.3185 124.987V131.565H94.0088ZM101.239 123.995C102.071 123.995 102.789 123.654 103.394 122.974C104.017 122.293 104.329 121.292 104.329 119.968C104.329 118.683 104.017 117.681 103.394 116.963C102.789 116.245 102.071 115.886 101.239 115.886C100.388 115.886 99.6511 116.188 99.0273 116.793C98.4224 117.398 98.12 118.428 98.12 119.883C98.12 121.32 98.4224 122.369 99.0273 123.031C99.6511 123.673 100.388 123.995 101.239 123.995Z" fill="black"/>
<path d="M48.2 6.81273C51.3119 5.01609 52.3898 4.42842 53.4791 4.20283C54.4824 3.99506 55.5176 3.99506 56.5209 4.20283C57.6102 4.42842 58.6881 5.01609 61.8 6.81273L89.0013 22.5174C92.1132 24.314 93.161 24.9537 93.9011 25.7843C94.5826 26.5493 95.1003 27.4458 95.422 28.4186C95.7713 29.4747 95.8013 30.702 95.8013 34.2953V65.7047C95.8013 69.298 95.7713 70.5253 95.422 71.5814C95.1003 72.5542 94.5826 73.4507 93.9011 74.2157C93.161 75.0463 92.1132 75.686 89.0013 77.4826L61.8 93.1873C58.6881 94.9839 57.6102 95.5716 56.5209 95.7972C55.5176 96.0049 54.4824 96.0049 53.4791 95.7972C52.3898 95.5716 51.3119 94.9839 48.2 93.1873L20.9987 77.4826C17.8868 75.686 16.839 75.0463 16.0989 74.2157C15.4174 73.4507 14.8997 72.5542 14.578 71.5814C14.2287 70.5253 14.1987 69.298 14.1987 65.7047V34.2953C14.1987 30.702 14.2287 29.4747 14.578 28.4186C14.8997 27.4458 15.4174 26.5493 16.0989 25.7843C16.839 24.9537 17.8868 24.314 20.9987 22.5174L48.2 6.81273Z" fill="url(#paint0_linear_193_165)" stroke="black" stroke-width="5"/>
<path d="M26.8894 48.9747L13.5015 56.2619L14.6878 71.5139L54.5126 95.5782L93.9985 72.5307V44.9076L81.6274 39.8236L68.07 44.9076L66.7142 36.6038L54.5126 29.1475L43.3278 36.6038L42.4805 56.2619L26.8894 48.9747Z" fill="#FDFDFF" stroke="black"/>
<path d="M48.2 6.81273C51.3119 5.01609 52.3898 4.42842 53.4791 4.20283C54.4824 3.99506 55.5176 3.99506 56.5209 4.20283C57.6102 4.42842 58.6881 5.01609 61.8 6.81273L89.0013 22.5174C92.1132 24.314 93.161 24.9537 93.9011 25.7843C94.5826 26.5493 95.1003 27.4458 95.422 28.4186C95.7713 29.4747 95.8013 30.702 95.8013 34.2953V65.7047C95.8013 69.298 95.7713 70.5253 95.422 71.5814C95.1003 72.5542 94.5826 73.4507 93.9011 74.2157C93.161 75.0463 92.1132 75.686 89.0013 77.4826L61.8 93.1873C58.6881 94.9839 57.6102 95.5716 56.5209 95.7972C55.5176 96.0049 54.4824 96.0049 53.4791 95.7972C52.3898 95.5716 51.3119 94.9839 48.2 93.1873L20.9987 77.4826C17.8868 75.686 16.839 75.0463 16.0989 74.2157C15.4174 73.4507 14.8997 72.5542 14.578 71.5814C14.2287 70.5253 14.1987 69.298 14.1987 65.7047V34.2953C14.1987 30.702 14.2287 29.4747 14.578 28.4186C14.8997 27.4458 15.4174 26.5493 16.0989 25.7843C16.839 24.9537 17.8868 24.314 20.9987 22.5174L48.2 6.81273Z" stroke="black" stroke-width="5"/>
<path d="M13.0916 55.4456L27.263 48.0222C27.5468 47.8736 27.8846 47.8699 28.1716 48.0123L43.1497 55.4456M43.1497 55.4456L43.1497 37.1655C43.1497 36.7933 43.3564 36.452 43.6861 36.2794L54.792 30.4685C55.077 30.3194 55.4163 30.3164 55.7038 30.4606L67.3182 36.2834C67.6564 36.453 67.87 36.7989 67.87 37.1773L67.87 45.2641M43.1497 55.4456L43.1497 90.875M67.87 90.875L67.87 45.2641M67.87 45.2641L81.0163 38.8595C81.2896 38.7263 81.6086 38.7248 81.8833 38.8552L95.3756 45.2641" stroke="black" stroke-width="5"/>
<path d="M56.4229 44.4524C56.4229 44.2704 56.5218 44.1028 56.6811 44.0148L61.8099 41.1821C62.1431 40.9981 62.5516 41.2391 62.5516 41.6198V45.2356C62.5516 45.4176 62.4527 45.5853 62.2933 45.6733L57.1646 48.5059C56.8313 48.69 56.4229 48.4489 56.4229 48.0682V44.4524Z" fill="black"/>
<path d="M83.4326 57.1794C83.4326 56.9974 83.5315 56.8297 83.6909 56.7417L89.7478 53.3965C90.081 53.2124 90.4895 53.4535 90.4895 53.8342V58.1705C90.4895 58.3525 90.3906 58.5202 90.2312 58.6082L84.1744 61.9534C83.8411 62.1375 83.4326 61.8964 83.4326 61.5158V57.1794Z" fill="black"/>
<path d="M31.7441 64.8099C31.7441 64.6278 31.8431 64.4602 32.0024 64.3722L37.1312 61.5395C37.4644 61.3555 37.8729 61.5965 37.8729 61.9772V65.593C37.8729 65.7751 37.774 65.9427 37.6146 66.0307L32.4859 68.8633C32.1526 69.0474 31.7441 68.8064 31.7441 68.4257V64.8099Z" fill="black"/>
<path d="M56.4229 52.5955C56.4229 52.4135 56.5218 52.2458 56.6811 52.1578L61.8099 49.3252C62.1431 49.1411 62.5516 49.3822 62.5516 49.7629V53.3787C62.5516 53.5607 62.4527 53.7283 62.2933 53.8163L57.1646 56.649C56.8313 56.833 56.4229 56.592 56.4229 56.2113V52.5955Z" fill="black"/>
<path d="M83.4326 65.3225C83.4326 65.1405 83.5315 64.9729 83.6909 64.8848L89.7479 61.5395C90.0811 61.3555 90.4896 61.5965 90.4896 61.9772V66.3137C90.4896 66.4957 90.3907 66.6633 90.2313 66.7513L84.1744 70.0966C83.8411 70.2807 83.4326 70.0397 83.4326 69.659V65.3225Z" fill="black"/>
<path d="M31.7441 72.9534C31.7441 72.7714 31.8431 72.6037 32.0024 72.5157L37.1312 69.6831C37.4644 69.499 37.8729 69.7401 37.8729 70.1208V73.7366C37.8729 73.9186 37.774 74.0863 37.6146 74.1743L32.4859 77.0069C32.1526 77.191 31.7441 76.9499 31.7441 76.5692V72.9534Z" fill="black"/>
<path d="M56.4229 60.7386C56.4229 60.5565 56.5218 60.3889 56.6811 60.3009L61.8099 57.4683C62.1431 57.2842 62.5516 57.5252 62.5516 57.9059V61.5217C62.5516 61.7038 62.4527 61.8714 62.2933 61.9594L57.1646 64.7921C56.8313 64.9761 56.4229 64.7351 56.4229 64.3544V60.7386Z" fill="black"/>
<path d="M56.4229 68.8816C56.4229 68.6996 56.5218 68.532 56.6811 68.444L61.8099 65.6113C62.1431 65.4273 62.5516 65.6683 62.5516 66.049V69.6648C62.5516 69.8468 62.4527 70.0145 62.2933 70.1025L57.1646 72.9351C56.8313 73.1192 56.4229 72.8781 56.4229 72.4974V68.8816Z" fill="black"/>
<path d="M56.4229 77.0247C56.4229 76.8427 56.5218 76.675 56.6811 76.587L61.8099 73.7544C62.1431 73.5703 62.5516 73.8114 62.5516 74.1921V77.8079C62.5516 77.9899 62.4527 78.1575 62.2933 78.2455L57.1646 81.0782C56.8313 81.2622 56.4229 81.0212 56.4229 80.6405V77.0247Z" fill="black"/>
</g>
<defs>
<linearGradient id="paint0_linear_193_165" x1="105" y1="80.0808" x2="12.9737" y2="-6.35013" gradientUnits="userSpaceOnUse">
<stop stop-color="#B8E0D0"/>
<stop offset="1" stop-color="#DBF0E8"/>
</linearGradient>
<clipPath id="clip0_193_165">
<rect width="110" height="132" fill="white"/>
</clipPath>
</defs>
</svg>
