<svg width="26" height="26" viewBox="0 0 26 26" fill="none" xmlns="http://www.w3.org/2000/svg">
<path d="M20.0417 2.16667H19.5V1.625C19.5 1.19402 19.3288 0.780698 19.024 0.475951C18.7193 0.171205 18.306 0 17.875 0C17.444 0 17.0307 0.171205 16.726 0.475951C16.4212 0.780698 16.25 1.19402 16.25 1.625V2.16667H9.75V1.625C9.75 1.19402 9.5788 0.780698 9.27405 0.475951C8.9693 0.171205 8.55598 0 8.125 0C7.69402 0 7.2807 0.171205 6.97595 0.475951C6.6712 0.780698 6.5 1.19402 6.5 1.625V2.16667H5.95833C4.37809 2.16667 2.86256 2.79442 1.74516 3.91182C0.627751 5.02923 0 6.54475 0 8.125L0 20.0417C0 21.6219 0.627751 23.1374 1.74516 24.2548C2.86256 25.3722 4.37809 26 5.95833 26H20.0417C21.6219 26 23.1374 25.3722 24.2548 24.2548C25.3722 23.1374 26 21.6219 26 20.0417V8.125C26 6.54475 25.3722 5.02923 24.2548 3.91182C23.1374 2.79442 21.6219 2.16667 20.0417 2.16667ZM20.0417 22.75H5.95833C5.24004 22.75 4.55116 22.4647 4.04325 21.9567C3.53534 21.4488 3.25 20.76 3.25 20.0417V10.8333H22.75V20.0417C22.75 20.76 22.4647 21.4488 21.9567 21.9567C21.4488 22.4647 20.76 22.75 20.0417 22.75Z" fill="#FDFDFF"/>
</svg>
